<?xml version="1.0" standalone="no"?>
<!DOCTYPE svg PUBLIC "-//W3C//DTD SVG 1.1//EN" "http://www.w3.org/Graphics/SVG/1.1/DTD/svg11.dtd" >
<svg xmlns="http://www.w3.org/2000/svg">
<metadata>Generated by IcoMoon</metadata>
<defs>
<font id="AdminLibrary" horiz-adv-x="1024">
<font-face units-per-em="1024" ascent="870.850439882698" descent="-153.14956011730206" />
<missing-glyph horiz-adv-x="1024" />
<glyph unicode="&#x20;" horiz-adv-x="0" d="" />
<glyph unicode="&#x8907;" glyph-name="cart" d="M727.42 70.266q34.066 0 59.116-26.050t25.048-60.118-25.048-59.116-59.116-25.048-60.118 25.048-26.050 59.116 26.050 60.118 60.118 26.050zM42.082 753.6h140.274l40.078-84.164h633.236q18.036 0 30.058-13.026t12.024-31.060q0-2.004-6.012-20.040l-152.298-276.54q-24.046-44.086-74.144-44.086h-318.622l-38.074-70.136-2.004-6.012q0-10.020 10.020-10.020h494.966v-86.168h-513.001q-34.066 0-59.116 26.050t-25.048 60.118q0 20.040 10.020 40.078l58.114 106.208-154.302 324.634h-86.168v84.164zM298.583 70.266q34.066 0 60.118-26.050t26.050-60.118-26.050-59.116-60.118-25.048-59.116 25.048-25.048 59.116 25.048 60.118 59.116 26.050z" />
<glyph unicode="&#xe520;" glyph-name="person" d="M513.001 231.438q108.212 0 225.44-47.092t117.228-123.24v-86.168h-685.338v86.168q0 76.148 117.228 123.24t225.44 47.092zM513.001 317.606q-70.136 0-120.234 50.098t-50.098 120.234 50.098 121.236 120.234 51.1 120.234-51.1 50.098-121.236-50.098-120.234-120.234-50.098z" />
<glyph unicode="&#xe800;" glyph-name="user-circle" d="M871.989 85.343c-14.887 107.066-58.4 202.108-155.733 215.277-50.384-54.965-123.097-89.89-203.253-89.89s-152.869 34.925-203.253 89.89c-97.333-13.169-140.846-108.212-155.733-215.277 79.585-112.219 210.698-186.078 358.987-186.078s279.403 73.858 358.987 186.078zM732.86 485.553c0 121.38-98.478 219.858-219.858 219.858s-219.858-98.478-219.858-219.858 98.478-219.858 219.858-219.858 219.858 98.478 219.858 219.858zM1026.003 338.981c0-282.265-229.018-513.001-513.001-513.001-283.41 0-513.001 230.164-513.001 513.001 0 283.41 229.591 513.001 513.001 513.001s513.001-229.591 513.001-513.001z" />
<glyph unicode="&#xe802;" glyph-name="error" d="M555.084 284.685v256.5h-84.164v-256.5h84.164zM555.084 112.349v86.168h-84.164v-86.168h84.164zM513.001 753.6q176.344 0 301.589-125.244t125.244-301.589-125.244-301.589-301.589-125.244-301.589 125.244-125.244 301.589 125.244 301.589 301.589 125.244z" />
<glyph unicode="&#xe803;" glyph-name="security" d="M513.001 797.686l384.751-172.336v-256.5q0-178.348-110.216-325.636t-274.536-187.366q-164.32 40.078-274.536 187.366t-110.216 325.636v256.5zM513.001 326.767v-382.747q118.23 38.074 200.392 143.28t98.192 239.468h-298.583zM513.001 326.767v376.736l-298.583-132.258v-244.478h298.583z" />
<glyph unicode="&#xe804;" glyph-name="storefront" d="M214.418 28.184h599.17v256.5h-10.020q-60.118 0-96.188 40.078-40.078-40.078-96.188-40.078-54.106 0-98.192 40.078-40.078-40.078-94.184-40.078-60.118 0-100.196 40.078-36.070-40.078-94.184-40.078h-10.020v-256.5zM172.336 438.986q-6.012-28.054 12.024-50.098 14.028-20.040 40.078-20.040 42.082 0 50.098 50.098l26.050 206.403h-84.164zM362.708 426.962q0-22.044 15.030-40.078t37.072-18.036q24.046 0 40.078 17.034t16.032 39.076v200.392h-84.164l-24.046-192.376v-6.012zM555.084 625.35v-200.392q0-22.044 16.032-39.076t36.070-17.034q26.050 0 43.084 19.038t13.026 45.088l-24.046 192.376h-84.164zM807.577 627.354l-82.16-2.004 26.050-206.403q2.004-20.040 16.032-35.068t34.066-15.030q24.046 0 40.078 20.040 18.036 22.044 12.024 50.098zM935.827 459.026q16.032-70.136-26.050-122.238l-12.024-12.024v-296.579q0-34.066-26.050-60.118t-60.118-26.050h-597.166q-34.066 0-60.118 26.050t-26.050 60.118v296.579l-12.024 12.024q-42.082 52.102-26.050 122.238l44.086 188.368q6.012 28.054 30.058 46.090t52.102 18.036h593.158q28.054 0 51.1-18.036t31.060-46.090z" />
<glyph unicode="&#xe805;" glyph-name="editor-list-ul" d="M915.195 338.981c0-23.598-19.494-43.092-43.092-43.092h-487.351c-23.598 0-43.092 19.494-43.092 43.092s19.494 43.092 43.092 43.092h487.351c23.598 0 43.092-19.494 43.092-43.092zM872.103 125.572h-487.351c-23.598 0-43.092-19.494-43.092-43.092s19.494-43.092 43.092-43.092h487.351c23.598 0 43.092 19.494 43.092 43.092s-19.494 43.092-43.092 43.092zM384.751 552.39h487.351c23.598 0 43.092 19.494 43.092 43.092s-19.494 43.092-43.092 43.092h-487.351c-23.598 0-43.092-19.494-43.092-43.092s19.494-43.092 43.092-43.092zM192.888 660.12c-35.91 0-64.638-28.728-64.638-64.638s28.728-63.612 64.638-63.612c34.884 0 63.612 27.702 63.612 63.612s-28.728 64.638-63.612 64.638zM192.888 147.118c-35.91 0-64.638-28.728-64.638-64.638s28.728-63.612 64.638-63.612c34.884 0 63.612 27.702 63.612 63.612s-28.728 64.638-63.612 64.638zM192.888 405.671c-35.91 0-64.638-28.728-64.638-63.612 0-35.91 28.728-64.638 64.638-64.638 34.884 0 63.612 28.728 63.612 64.638 0 34.884-28.728 63.612-63.612 63.612z" />
<glyph unicode="&#xe806;" glyph-name="search" d="M406.794 240.599q80.156 0 136.266 56.11t56.11 136.266-56.11 136.266-136.266 56.11-136.266-56.11-56.11-136.266 56.11-136.266 136.266-56.11zM663.295 240.599l212.414-212.414-64.126-64.126-212.414 212.414v34.066l-12.024 12.024q-76.148-66.13-180.352-66.13-116.227 0-197.386 80.156t-81.158 196.384 81.158 197.386 197.386 81.158 196.384-81.158 80.156-197.386q0-42.082-20.040-95.186t-46.090-85.166l12.024-12.024h34.066z" />
<glyph unicode="&#xe807;" glyph-name="info" d="M555.084 455.018v86.168h-84.164v-86.168h84.164zM555.084 112.349v256.5h-84.164v-256.5h84.164zM513.001 753.6q176.344 0 301.589-125.244t125.244-301.589-125.244-301.589-301.589-125.244-301.589 125.244-125.244 301.589 125.244 301.589 301.589 125.244z" />
<glyph unicode="&#xe809;" glyph-name="check" d="M384.751 148.419l452.884 452.884 60.118-60.118-513.001-513.001-238.466 238.466 60.118 60.118z" />
<glyph unicode="&#xe80a;" glyph-name="smile-o" horiz-adv-x="880" d="M649.267 236.495c-28.627-92.18-112.791-154.014-209.552-154.014s-180.925 61.834-209.552 154.014c-6.298 19.467 4.579 39.507 24.046 45.804 18.893 6.298 39.507-4.579 45.804-24.046 18.893-61.263 75.577-102.486 139.701-102.486s120.807 41.223 139.701 102.486c6.298 19.467 26.909 30.346 46.376 24.046 18.893-6.298 29.772-26.338 23.475-45.804zM366.429 485.553c0-40.651-32.635-73.286-73.286-73.286s-73.286 32.635-73.286 73.286 32.635 73.286 73.286 73.286 73.286-32.635 73.286-73.286zM659.573 485.553c0-40.651-32.635-73.286-73.286-73.286s-73.286 32.635-73.286 73.286 32.635 73.286 73.286 73.286 73.286-32.635 73.286-73.286zM806.144 338.981c0 202.108-164.32 366.429-366.429 366.429s-366.429-164.32-366.429-366.429 164.32-366.429 366.429-366.429 366.429 164.32 366.429 366.429zM879.431 338.981c0-242.76-196.955-439.715-439.715-439.715s-439.715 196.955-439.715 439.715 196.955 439.715 439.715 439.715 439.715-196.955 439.715-439.715z" />
<glyph unicode="&#xe810;" glyph-name="close" d="M811.585 565.232l-238.466-238.466 238.466-238.466-60.118-60.118-238.466 238.466-238.466-238.466-60.118 60.118 238.466 238.466-238.466 238.466 60.118 60.118 238.466-238.466 238.466 238.466z" />
<glyph unicode="&#xe820;" glyph-name="captcha" d="M106.704 232.277c-11.286 0-21.546-9.234-21.546-21.546s-9.234-21.546-20.52-21.546-21.546 10.26-21.546 21.546v85.158c0 12.312 9.234 21.546 21.546 21.546s20.52-9.234 20.52-21.546 10.26-20.52 21.546-20.52 21.546 9.234 21.546 20.52c0 35.91-28.728 64.638-63.612 64.638s-64.638-28.728-64.638-64.638v-85.158c0-34.884 28.728-63.612 64.638-63.612s63.612 28.728 63.612 63.612c0 12.312-9.234 21.546-21.546 21.546zM534.548 338.981c11.286 0 21.546-9.234 21.546-21.546s9.234-21.546 21.546-21.546 20.52 10.26 20.52 21.546c0 35.91-28.728 64.638-63.612 64.638s-64.638-28.728-64.638-64.638v-85.158c0-35.91 28.728-64.638 64.638-64.638s63.612 28.728 63.612 64.638c0 11.286-9.234 21.546-20.52 21.546s-21.546-10.26-21.546-21.546-10.26-21.546-21.546-21.546-21.546 9.234-21.546 21.546v85.158c0 12.312 9.234 21.546 21.546 21.546zM1024.977 175.846l-64.638 170.316c-6.156 17.442-33.858 17.442-40.014 0l-63.612-170.316c-4.104-11.286 1.026-23.598 12.312-27.702s23.598 1.026 27.702 12.312l10.26 28.728h66.69l11.286-28.728c3.078-8.208 11.286-13.338 19.494-13.338 3.078 0 5.13 0 8.208 1.026 10.26 4.104 16.416 16.416 12.312 27.702zM923.403 232.277l17.442 46.17 17.442-46.17h-34.884zM233.928 261.005c-6.156 16.416-33.858 16.416-40.014 0l-64.638-171.342c-4.104-10.26 2.052-22.572 13.338-26.676 10.26-4.104 22.572 1.026 26.676 12.312l11.286 28.728h66.69l10.26-28.728c4.104-9.234 11.286-14.364 20.52-14.364 2.052 0 5.13 1.026 7.182 2.052 11.286 4.104 16.416 16.416 12.312 26.676l-63.612 171.342zM196.992 147.118l16.416 45.144 17.442-45.144h-33.858zM363.205 445.685h-42.066c-12.312 0-21.546-9.234-21.546-21.546v-170.316c0-12.312 9.234-21.546 21.546-21.546s20.52 9.234 20.52 21.546v63.612h21.546c35.91 0 64.638 28.728 64.638 64.638s-28.728 63.612-64.638 63.612zM363.205 360.527h-21.546v43.092h21.546c12.312 0 21.546-10.26 21.546-21.546s-9.234-21.546-21.546-21.546zM791.049 275.369c-12.312 0-21.546-10.26-21.546-21.546v-64.638h-85.158v64.638c0 11.286-10.26 21.546-21.546 21.546s-21.546-10.26-21.546-21.546v-171.342c0-11.286 9.234-21.546 21.546-21.546s21.546 10.26 21.546 21.546v64.638h85.158v-64.638c0-11.286 9.234-21.546 21.546-21.546s21.546 10.26 21.546 21.546v171.342c0 11.286-10.26 21.546-21.546 21.546zM469.909 424.139c0-11.286 10.26-20.52 21.546-20.52s21.546 9.234 21.546 20.52v149.796h43.092c11.286 0 21.546 10.26 21.546 21.546s-10.26 21.546-21.546 21.546h-128.25c-12.312 0-21.546-9.234-21.546-21.546s9.234-21.546 21.546-21.546h42.066v-149.796z" />
<glyph unicode="&#xe822;" glyph-name="checkbox" d="M234.954 125.572h-170.316c-35.91 0-64.638-28.728-64.638-64.638v-171.342c0-34.884 28.728-63.612 64.638-63.612h170.316c35.91 0 64.638 28.728 64.638 63.612v171.342c0 35.91-28.728 64.638-64.638 64.638zM256.5-110.409c0-11.286-9.234-20.52-21.546-20.52h-170.316c-12.312 0-21.546 9.234-21.546 20.52v171.342c0 12.312 9.234 21.546 21.546 21.546h170.316c12.312 0 21.546-9.234 21.546-21.546v-171.342zM406.297 638.574h598.16c12.312 0 21.546 9.234 21.546 21.546s-9.234 20.52-21.546 20.52h-598.16c-12.312 0-21.546-9.234-21.546-20.52s9.234-21.546 21.546-21.546zM1004.457 338.981h-598.16c-12.312 0-21.546-9.234-21.546-21.546s9.234-21.546 21.546-21.546h598.16c12.312 0 21.546 10.26 21.546 21.546s-9.234 21.546-21.546 21.546zM1004.457-2.678h-598.16c-12.312 0-21.546-10.26-21.546-21.546s9.234-21.546 21.546-21.546h598.16c12.312 0 21.546 9.234 21.546 21.546s-9.234 21.546-21.546 21.546zM302.671 842.748l-30.78-45.144c-10.26 7.182-23.598 11.286-36.936 11.286h-170.316c-35.91 0-64.638-28.728-64.638-63.612v-171.342c0-34.884 28.728-63.612 64.638-63.612h170.316c35.91 0 64.638 28.728 64.638 63.612v171.342c0 5.13-1.026 10.26-2.052 14.364l41.040 58.482c6.156 10.26 4.104 23.598-6.156 29.754-9.234 7.182-22.572 5.13-29.754-5.13zM256.5 573.936c0-11.286-9.234-21.546-21.546-21.546h-170.316c-12.312 0-21.546 10.26-21.546 21.546v171.342c0 11.286 9.234 21.546 21.546 21.546h170.316c5.13 0 8.208-2.052 12.312-4.104l-79.002-112.86-46.17 46.17c-8.208 8.208-21.546 8.208-30.78 0s-8.208-21.546 0-29.754l64.638-64.638c4.104-4.104 9.234-6.156 15.39-6.156 0 0 1.026 0 2.052 0 6.156 1.026 11.286 4.104 15.39 9.234l67.716 97.47v-128.25zM302.671 501.090l-30.78-45.144c-10.26 7.182-23.598 11.286-36.936 11.286h-170.316c-35.91 0-64.638-28.728-64.638-63.612v-171.342c0-35.91 28.728-64.638 64.638-64.638h170.316c35.91 0 64.638 28.728 64.638 64.638v171.342c0 5.13-1.026 9.234-2.052 14.364l41.040 58.482c6.156 9.234 4.104 22.572-6.156 29.754-9.234 7.182-22.572 4.104-29.754-5.13zM256.5 232.277c0-12.312-9.234-21.546-21.546-21.546h-170.316c-12.312 0-21.546 9.234-21.546 21.546v171.342c0 11.286 9.234 20.52 21.546 20.52h170.316c5.13 0 8.208-1.026 12.312-3.078l-79.002-112.86-46.17 46.17c-8.208 8.208-21.546 8.208-30.78 0s-8.208-22.572 0-30.78l64.638-63.612c4.104-4.104 9.234-6.156 15.39-6.156 0 0 1.026 0 2.052 0 6.156 0 11.286 4.104 15.39 9.234l67.716 96.444v-127.224z" />
<glyph unicode="&#xe828;" glyph-name="divider" d="M43.092 445.685h939.819c12.312 0 21.546 10.26 21.546 21.546s-9.234 21.546-21.546 21.546h-939.819c-12.312 0-21.546-9.234-21.546-21.546s9.234-21.546 21.546-21.546zM384.751 617.028h256.5c8.208 0 15.39 5.13 19.494 12.312s2.052 15.39-2.052 21.546l-128.25 171.342c-8.208 11.286-26.676 11.286-34.884 0l-128.25-171.342c-4.104-6.156-5.13-14.364-2.052-21.546 4.104-7.182 11.286-12.312 19.494-12.312zM513.001 774.006l85.158-113.886h-170.316l85.158 113.886zM641.252 60.934h-256.5c-8.208 0-15.39-4.104-19.494-11.286-3.078-7.182-2.052-16.416 2.052-22.572l128.25-171.342c4.104-5.13 11.286-8.208 17.442-8.208s13.338 3.078 17.442 8.208l128.25 171.342c4.104 6.156 5.13 15.39 2.052 22.572-4.104 7.182-11.286 11.286-19.494 11.286zM513.001-95.019l-85.158 113.886h170.316l-85.158-113.886zM982.911 232.277h-939.819c-12.312 0-21.546-9.234-21.546-21.546s9.234-21.546 21.546-21.546h939.819c12.312 0 21.546 10.26 21.546 21.546s-9.234 21.546-21.546 21.546z" />
<glyph unicode="&#xe84e;" glyph-name="radio" d="M149.796 830.436c-83.106 0-149.796-66.69-149.796-149.796s66.69-148.77 149.796-148.77 149.796 66.69 149.796 148.77-67.716 149.796-149.796 149.796zM149.796 573.936c-59.508 0-106.704 48.222-106.704 106.704s47.196 107.73 106.704 107.73 106.704-48.222 106.704-107.73-48.222-106.704-106.704-106.704zM149.796 488.778c-83.106 0-149.796-67.716-149.796-149.796s66.69-149.796 149.796-149.796 149.796 67.716 149.796 149.796-67.716 149.796-149.796 149.796zM149.796 232.277c-59.508 0-106.704 48.222-106.704 106.704s47.196 106.704 106.704 106.704 106.704-48.222 106.704-106.704-48.222-106.704-106.704-106.704zM149.796 147.118c-83.106 0-149.796-67.716-149.796-149.796s66.69-149.796 149.796-149.796 149.796 66.69 149.796 149.796-67.716 149.796-149.796 149.796zM149.796-110.409c-59.508 0-106.704 48.222-106.704 107.73s47.196 106.704 106.704 106.704 106.704-48.222 106.704-106.704-48.222-107.73-106.704-107.73zM406.297 660.12h598.16c12.312 0 21.546 9.234 21.546 20.52s-9.234 21.546-21.546 21.546h-598.16c-12.312 0-21.546-9.234-21.546-21.546s9.234-20.52 21.546-20.52zM1004.457 360.527h-598.16c-12.312 0-21.546-9.234-21.546-21.546s9.234-21.546 21.546-21.546h598.16c12.312 0 21.546 10.26 21.546 21.546s-9.234 21.546-21.546 21.546zM1004.457 18.868h-598.16c-12.312 0-21.546-10.26-21.546-21.546s9.234-21.546 21.546-21.546h598.16c12.312 0 21.546 9.234 21.546 21.546s-9.234 21.546-21.546 21.546zM149.796 403.619c-35.91 0-64.638-28.728-64.638-64.638s28.728-63.612 64.638-63.612 63.612 28.728 63.612 63.612-28.728 64.638-63.612 64.638zM149.796 317.435c-12.312 0-21.546 10.26-21.546 21.546s9.234 21.546 21.546 21.546 21.546-9.234 21.546-21.546-10.26-21.546-21.546-21.546z" />
<glyph unicode="&#xe869;" glyph-name="toggle" d="M234.954 830.436h-170.316c-35.91 0-64.638-28.728-64.638-63.612v-171.342c0-34.884 28.728-63.612 64.638-63.612h170.316c35.91 0 64.638 28.728 64.638 63.612v171.342c0 34.884-28.728 63.612-64.638 63.612zM256.5 595.482c0-11.286-9.234-21.546-21.546-21.546h-170.316c-12.312 0-21.546 10.26-21.546 21.546v171.342c0 11.286 9.234 21.546 21.546 21.546h170.316c12.312 0 21.546-10.26 21.546-21.546v-171.342zM192.888 702.186h-21.546v21.546c0 12.312-10.26 21.546-21.546 21.546s-21.546-9.234-21.546-21.546v-21.546h-21.546c-11.286 0-21.546-9.234-21.546-21.546s10.26-20.52 21.546-20.52h21.546v-21.546c0-12.312 9.234-21.546 21.546-21.546s21.546 9.234 21.546 21.546v21.546h21.546c11.286 0 20.52 9.234 20.52 20.52s-9.234 21.546-20.52 21.546zM234.954 488.778h-170.316c-35.91 0-64.638-28.728-64.638-64.638v-170.316c0-35.91 28.728-64.638 64.638-64.638h170.316c35.91 0 64.638 28.728 64.638 64.638v170.316c0 35.91-28.728 64.638-64.638 64.638zM256.5 253.823c0-12.312-9.234-21.546-21.546-21.546h-170.316c-12.312 0-21.546 9.234-21.546 21.546v170.316c0 12.312 9.234 21.546 21.546 21.546h170.316c12.312 0 21.546-9.234 21.546-21.546v-170.316zM192.888 360.527h-21.546v21.546c0 11.286-10.26 21.546-21.546 21.546s-21.546-10.26-21.546-21.546v-21.546h-21.546c-11.286 0-21.546-9.234-21.546-21.546s10.26-21.546 21.546-21.546h21.546v-21.546c0-11.286 9.234-20.52 21.546-20.52s21.546 9.234 21.546 20.52v21.546h21.546c11.286 0 20.52 10.26 20.52 21.546s-9.234 21.546-20.52 21.546zM234.954 147.118h-170.316c-35.91 0-64.638-28.728-64.638-64.638v-171.342c0-34.884 28.728-63.612 64.638-63.612h170.316c35.91 0 64.638 28.728 64.638 63.612v171.342c0 35.91-28.728 64.638-64.638 64.638zM256.5-88.863c0-11.286-9.234-21.546-21.546-21.546h-170.316c-12.312 0-21.546 10.26-21.546 21.546v171.342c0 12.312 9.234 21.546 21.546 21.546h170.316c12.312 0 21.546-9.234 21.546-21.546v-171.342zM192.888 18.868h-21.546v20.52c0 12.312-10.26 21.546-21.546 21.546s-21.546-9.234-21.546-21.546v-20.52h-21.546c-11.286 0-21.546-10.26-21.546-21.546s10.26-21.546 21.546-21.546h21.546v-21.546c0-12.312 9.234-21.546 21.546-21.546s21.546 9.234 21.546 21.546v21.546h21.546c11.286 0 20.52 9.234 20.52 21.546s-9.234 21.546-20.52 21.546zM406.297 660.12h598.16c12.312 0 21.546 9.234 21.546 20.52s-9.234 21.546-21.546 21.546h-598.16c-12.312 0-21.546-9.234-21.546-21.546s9.234-20.52 21.546-20.52zM1004.457 360.527h-598.16c-12.312 0-21.546-9.234-21.546-21.546s9.234-21.546 21.546-21.546h598.16c12.312 0 21.546 10.26 21.546 21.546s-9.234 21.546-21.546 21.546zM1004.457 18.868h-598.16c-12.312 0-21.546-10.26-21.546-21.546s9.234-21.546 21.546-21.546h598.16c12.312 0 21.546 9.234 21.546 21.546s-9.234 21.546-21.546 21.546z" />
<glyph unicode="&#xe86d;" glyph-name="text" d="M1004.457 638.574h-982.911c-12.312 0-21.546 9.234-21.546 21.546s9.234 20.52 21.546 20.52h982.911c12.312 0 21.546-9.234 21.546-20.52s-9.234-21.546-21.546-21.546zM705.89 510.324h-684.344c-12.312 0-21.546 9.234-21.546 21.546s9.234 20.52 21.546 20.52h684.344c11.286 0 20.52-9.234 20.52-20.52s-9.234-21.546-20.52-21.546zM1004.457 382.073h-982.911c-12.312 0-21.546 9.234-21.546 21.546s9.234 20.52 21.546 20.52h982.911c12.312 0 21.546-9.234 21.546-20.52s-9.234-21.546-21.546-21.546zM705.89 253.823h-684.344c-12.312 0-21.546 9.234-21.546 21.546s9.234 20.52 21.546 20.52h684.344c11.286 0 20.52-9.234 20.52-20.52s-9.234-21.546-20.52-21.546zM1004.457 125.572h-982.911c-12.312 0-21.546 9.234-21.546 21.546s9.234 20.52 21.546 20.52h982.911c12.312 0 21.546-9.234 21.546-20.52s-9.234-21.546-21.546-21.546zM705.89-2.678h-684.344c-12.312 0-21.546 9.234-21.546 21.546s9.234 20.52 21.546 20.52h684.344c11.286 0 20.52-9.234 20.52-20.52s-9.234-21.546-20.52-21.546z" />
<glyph unicode="&#xe898;" glyph-name="section" d="M59.508 783.24c-16.416-16.416-20.52-37.962-20.52-63.612v-761.294c0-25.65 8.208-47.196 25.65-63.612s37.962-25.65 63.612-25.65h769.502c25.65 0 47.196 8.208 64.638 25.65 16.416 16.416 25.65 37.962 25.65 63.612v761.294c0 25.65-9.234 47.196-25.65 63.612-21.546 17.442-43.092 25.65-64.638 25.65h-769.502c-29.754 5.13-51.3-8.208-68.742-25.65M128.25 625.236h752.060v-282.151h-752.060v282.151M885.441 249.719v-283.177h-757.19v283.177h757.19z" />
<glyph unicode="&#xe8f0;" glyph-name="book" d="M747.459 226.572q52.102 0 108.212-10.020v-64.126q-40.078 10.020-108.212 10.020-120.234 0-192.376-42.082v72.14q76.148 34.066 192.376 34.066zM555.084 306.728q84.164 34.066 192.376 34.066 52.102 0 108.212-10.020v-64.126q-40.078 10.020-108.212 10.020-120.234 0-192.376-42.082v72.14zM747.459 390.892q-120.234 0-192.376-42.082v70.136q80.156 36.070 192.376 36.070 52.102 0 108.212-10.020v-66.13q-48.094 12.024-108.212 12.024zM897.753 48.223v492.962q-66.13 20.040-150.294 20.040-130.254 0-234.458-64.126v-490.958q104.204 64.126 234.458 64.126 78.152 0 150.294-22.044zM747.459 647.393q152.298 0 236.462-64.126v-623.217q0-8.016-7.014-15.030t-15.030-7.014q-6.012 0-10.020 2.004-82.16 44.086-204.399 44.086-130.254 0-234.458-64.126-86.168 64.126-234.458 64.126-108.212 0-204.399-46.090-2.004 0-5.010-1.002t-5.010-1.002q-8.016 0-15.030 6.012t-7.014 14.028v627.225q86.168 64.126 236.462 64.126 148.29 0 234.458-64.126 86.168 64.126 234.458 64.126z" />
<glyph unicode="&#xe8f7;" glyph-name="plus-circle-o" d="M513.001-136.059c-260.604 0-474.013 214.434-474.013 475.039s213.408 475.039 474.013 475.039 475.039-214.434 475.039-475.039-214.434-475.039-475.039-475.039zM513.001-41.666c209.304 0 380.647 171.342 380.647 380.647s-171.342 380.647-380.647 380.647-380.647-171.342-380.647-380.647 171.342-380.647 380.647-380.647zM465.805 386.177v179.55c0 25.65 21.546 47.196 47.196 47.196s47.196-21.546 47.196-47.196v-179.55h179.55c25.65 0 47.196-21.546 47.196-47.196s-21.546-47.196-47.196-47.196h-179.55v-179.55c0-25.65-21.546-47.196-47.196-47.196s-47.196 21.546-47.196 47.196v179.55h-179.55c-25.65 0-47.196 21.546-47.196 47.196s21.546 47.196 47.196 47.196h179.55z" />
<glyph unicode="&#xe900;" glyph-name="price" horiz-adv-x="1266" d="M581.189 644.67c-37.362-7.611-102.4-42.897-136.303-74.032-24.908-22.832-44.281-49.124-62.27-85.795-25.6-51.892-26.292-53.968-26.292-132.843 0-72.649 1.384-83.027 19.373-118.314 67.114-136.995 211.719-202.032 353.557-158.443 46.357 14.53 65.038 27.676 38.746 27.676-7.611 0-25.6-4.843-39.438-10.378-60.195-25.6-147.373-17.989-217.254 17.989-44.281 22.141-94.097 76.8-119.005 129.384-20.757 42.897-22.141 51.892-22.141 115.546 0.692 59.503 3.459 74.724 18.681 108.627 49.816 107.935 138.378 166.054 251.157 165.362 125.232 0 226.941-76.108 263.611-195.805 13.838-44.973 27.676-53.968 20.757-13.838-13.838 78.876-84.411 164.67-166.746 203.416-36.67 16.605-56.043 21.449-102.4 22.832-31.135 1.384-64.346 0.692-74.032-1.384zM629.622 528.432c0-13.838-3.459-17.297-17.989-17.297-11.070 0-26.984-8.995-41.514-23.524-42.897-42.897-26.984-105.168 32.519-122.465l26.984-8.303v-65.038c0-53.968-2.076-64.346-11.070-64.346-27.676 0-58.119 35.978-58.119 69.189 0 7.611-4.843 13.838-10.378 13.838-15.222 0-13.146-40.13 3.459-67.114 9.686-16.605 22.141-24.908 44.281-31.135 27.676-6.919 31.135-11.070 33.211-29.059 2.768-26.984 15.222-27.676 17.989-2.076 1.384 11.070 7.611 21.449 13.838 23.524 56.043 17.297 77.492 41.514 77.492 86.486 0 31.827-21.449 57.427-58.811 69.881l-27.676 9.686-2.076 59.503c-1.384 53.968-0.692 60.195 10.378 60.195 20.757 0 42.205-19.373 47.049-41.514 4.843-23.524 24.216-28.368 24.216-6.919 0 35.286-20.065 55.351-70.573 71.957-6.919 2.076-12.454 10.378-12.454 17.989s-4.843 13.838-10.378 13.838c-6.227 0-10.378-6.227-10.378-17.297zM629.622 438.486c0-65.038-5.535-71.957-37.362-42.897-30.443 26.984-24.908 72.649 11.070 89.946 12.454 6.227 23.524 11.762 24.908 11.762 0.692 0 1.384-26.292 1.384-58.811zM700.195 324.324c17.297-17.989 20.065-24.908 16.605-43.589-4.843-24.908-32.519-53.276-53.276-53.276-11.762 0-13.146 4.843-13.146 58.811 0 54.659 0.692 58.811 14.53 58.811 7.611 0 23.524-9.686 35.286-20.757zM954.811 369.297v-58.811h62.27v117.622h-62.27v-58.811zM1003.243 372.757c0-39.438-0.692-41.514-17.297-41.514s-17.297 2.076-17.297 41.514c0 39.438 0.692 41.514 17.297 41.514s17.297-2.076 17.297-41.514zM750.703 372.757c2.768-4.151 41.514-6.919 94.097-6.919 54.659 0 89.254 2.768 89.254 6.919s-35.978 6.919-94.097 6.919c-60.195 0-92.022-2.768-89.254-6.919zM1037.838 372.757c0-3.459 7.611-6.919 17.297-6.919s17.297 3.459 17.297 6.919c0 4.151-7.611 6.919-17.297 6.919s-17.297-2.768-17.297-6.919zM831.654 246.832l2.076-57.427 24.908-2.076c34.595-2.768 42.205 8.995 39.438 65.73l-2.076 47.049-66.422 4.151 2.076-57.427zM878.703 248.216c0-39.438-0.692-41.514-17.297-41.514s-17.297 2.076-17.297 41.514c0 39.438 0.692 41.514 17.297 41.514s17.297-2.076 17.297-41.514zM754.162 248.216c0-3.459 13.838-6.919 31.135-6.919s31.135 3.459 31.135 6.919c0 4.151-13.838 6.919-31.135 6.919s-31.135-2.768-31.135-6.919zM913.297 248.216c0-4.151 31.135-6.919 79.568-6.919s79.568 2.768 79.568 6.919c0 4.151-31.135 6.919-79.568 6.919s-79.568-2.768-79.568-6.919zM904.303 181.795c-2.768-2.768-4.843-29.059-4.843-58.811 0-51.892 0.692-54.659 16.605-58.811 8.995-2.076 24.216-2.768 32.519-1.384 15.914 2.076 16.605 4.151 16.605 60.886v58.811l-27.676 2.076c-15.914 1.384-30.443 0-33.211-2.768zM953.427 125.751c-2.076-35.286-4.151-40.13-17.297-42.205-15.222-2.076-15.914 0-15.914 39.438 0 40.822 0.692 42.205 17.297 42.205 17.297 0 17.989-1.384 15.914-39.438zM754.162 127.135c0-8.303 11.070-10.378 66.422-10.378 49.816 0 65.73 2.076 63.654 8.995-2.076 5.535-23.524 8.995-66.422 10.378-53.276 1.384-63.654 0-63.654-8.995zM987.33 132.67c-11.762-11.762-1.384-15.914 40.13-15.914 35.286 0 44.973 2.076 44.973 10.378s-8.995 10.378-40.13 10.378c-22.141 0-42.897-2.076-44.973-4.843z" />
<glyph unicode="&#xe901;" glyph-name="catalog-svgrepo-com" d="M512.5-137.111l-512.5 140.938v726.042l170.834-42.709v128.125l341.667-98.229 341.667 98.229v-128.125l170.834 42.709v-726.042l-512.5-140.938zM85.416 67.89l427.084-119.584 427.084 115.313v555.209l-85.416-21.354v-469.792l-341.667-93.959-341.667 98.229v469.792l-85.416 21.354v-555.209zM555.209 640.181v-508.229l213.542 59.791v512.5l-213.542-64.063zM256.25 196.015l213.542-59.791v503.959l-213.542 59.791v-503.959z" />
<glyph unicode="&#xe902;" glyph-name="contact-form-svgrepo-com" d="M706.807-99.409h-634.055v889.809h634.053v-220.562l67.594 67.596v186.763c0.002 18.664-15.133 33.797-33.795 33.797h-701.649c-18.666 0-33.803-15.133-33.803-33.797v-957.407c0-18.664 15.135-33.797 33.803-33.797h701.649c18.662 0 33.797 15.133 33.797 33.797v371.912l-67.594-67.596v-270.515zM607.163 709.334h-434.77c-14.256 0-25.824-11.568-25.824-25.828 0-14.258 11.568-25.826 25.824-25.826h434.768c14.26 0 25.826 11.568 25.826 25.826 0.002 14.26-11.566 25.828-25.824 25.828zM632.989 545.761c0 14.258-11.568 25.828-25.826 25.828h-434.77c-14.256 0-25.824-11.57-25.824-25.828 0-14.26 11.568-25.828 25.824-25.828h434.768c14.26 0 25.828 11.566 25.828 25.828zM570.826 433.839h-398.433c-14.256 0-25.824-11.57-25.824-25.828 0-14.26 11.568-25.826 25.824-25.826h346.776l51.656 51.654zM426.352 262.615c3.495 11.703 8.491 22.918 14.576 33.479h-268.534c-14.256 0-25.824-11.568-25.824-25.828 0-14.258 11.568-25.828 25.824-25.828h248.543l5.414 18.179zM172.393 158.343c-14.256 0-25.824-11.568-25.824-25.828 0-14.256 11.568-25.826 25.824-25.826h226.869c-6.694 16.241-8.425 34.184-3.698 51.654h-223.171zM998.728 662.368c-13.533 13.539-31.882 21.137-50.999 21.137s-37.462-7.597-50.98-21.121l-382.106-382.116c-10.427-10.422-18.075-23.254-22.298-37.379l-30.449-102.068c-1.296-4.32-0.119-8.996 3.077-12.191 2.337-2.339 5.466-3.598 8.674-3.598 1.162 0 2.354 0.166 3.516 0.519l102.062 30.454c14.129 4.221 26.959 11.873 37.381 22.295l382.118 382.102c13.518 13.52 21.121 31.864 21.121 50.982 0 19.123-7.599 37.466-21.119 50.984z" />
<glyph unicode="&#xe903;" glyph-name="exclude-svgrepo-com" d="M982.293 516.326h-298.96v85.417h-683.333v-128.125h384.375v-85.417h-384.375v-170.833c0-23.575 19.133-42.708 42.708-42.708h298.958v-298.958c0-23.575 19.133-42.708 42.708-42.708h597.918c23.575 0 42.708 19.133 42.708 42.708v597.916c0.002 23.575-19.131 42.708-42.706 42.708zM427.083 388.201v42.708h170.833v-170.833h-170.833v128.125zM939.584-81.589h-512.5v256.25h213.543c23.575 0 42.708 19.133 42.708 42.708v213.543h256.25v-512.5zM683.333 815.286c0 23.575-19.133 42.708-42.708 42.708h-597.918c-23.575 0-42.708-19.133-42.708-42.708v-128.125h683.333v128.125z" />
<glyph unicode="&#xe904;" glyph-name="inquiry-filled-svgrepo-com" d="M896.876 687.16v-597.917h-213.542v-170.834l-260.521 170.834h-294.688v597.917h768.751zM514.372 284.634c-13.68 0-25.024-4.462-34.033-13.388s-13.513-20.062-13.513-33.408c0-14.014 4.421-25.525 13.263-34.534s20.27-13.513 34.283-13.513c13.68 0 24.982 4.504 33.908 13.513s13.388 20.27 13.388 33.783c0 13.68-4.462 25.024-13.388 34.033s-20.228 13.513-33.908 13.513zM532.89 556.9c-37.203 0-74.323-9.676-111.359-29.028v0l22.272-55.554c30.196 17.184 55.972 25.775 77.326 25.775 13.013 0 23.315-3.128 30.905-9.384s11.386-14.722 11.386-25.4c0-8.508-2.711-15.933-8.133-22.272-4.067-4.755-11.769-11.292-23.109-19.613v0l-26.846-19.219c-2.636-1.958-4.91-3.694-6.823-5.209v0l-4.658-3.882c-4.171-3.754-7.507-8.050-10.010-12.888-4.337-8.341-6.506-23.106-6.506-44.293v0-22.022h73.822v10.26c0 15.182 1.919 25.733 5.756 31.656s14.097 14.472 30.78 25.65v0l7.883 5.394c17.663 12.472 30.217 24.146 37.662 35.020 8.508 12.429 12.762 27.402 12.762 44.919 0 25.858-8.759 46.879-26.276 63.062-19.852 18.018-48.798 27.026-86.835 27.026z" />
<glyph unicode="&#xe905;" glyph-name="price-quote-icon" d="M177.113 769.908c17.877 0 34.113-7.267 45.825-18.979 5.465-5.485 9.97-11.912 13.213-19.059h105.523c3.243 7.127 7.748 13.573 13.193 19.039 11.731 11.711 27.947 18.999 45.845 18.999 17.877 0 34.113-7.287 45.825-18.979 5.465-5.485 9.97-11.932 13.213-19.059h105.523c3.243 7.127 7.748 13.573 13.213 19.039 11.731 11.711 27.947 18.999 45.825 18.999 17.897 0 34.113-7.287 45.825-18.979 5.485-5.485 9.97-11.932 13.213-19.059h105.503c3.243 7.127 7.748 13.573 13.193 19.039 11.731 11.711 27.967 18.999 45.865 18.999 17.877 0 34.093-7.287 45.805-18.979 5.465-5.485 9.97-11.932 13.213-19.059h91.289c14.794 0 26.786-11.992 26.786-26.786v-675.68c-0.060-10.19-5.926-19.919-15.795-24.364-123.2-55.935-309.202-83.662-494.803-83.662-185.441 0-371.883 27.727-496.265 82.661-10.55 3.604-18.138 13.593-18.138 25.365v675.68c0 14.794 11.992 26.786 26.766 26.786h91.309c3.243 7.127 7.748 13.573 13.213 19.039 11.731 11.711 27.947 18.999 45.825 18.999zM433.343 214.786c16.176 0 29.289-13.133 29.289-29.289s-13.113-29.289-29.289-29.289c-16.156 0-29.269 13.133-29.269 29.289s13.113 29.289 29.269 29.289zM433.343 358.106c16.176 0 29.289-13.093 29.289-29.269s-13.113-29.289-29.289-29.289c-16.156 0-29.269 13.113-29.269 29.289s13.113 29.269 29.269 29.269zM433.343 499.964c16.176 0 29.289-13.133 29.289-29.289s-13.113-29.289-29.289-29.289c-16.156 0-29.269 13.133-29.269 29.289s13.113 29.289 29.269 29.289zM745.268 211.563c14.394 0 26.065-11.671 26.065-26.065s-11.671-26.065-26.065-26.065h-215.35c-14.394 0-26.065 11.671-26.065 26.065s11.671 26.065 26.065 26.065h215.35zM861.141 354.923c14.394 0 26.065-11.691 26.065-26.085s-11.671-26.065-26.065-26.065h-331.223c-14.394 0-26.065 11.671-26.065 26.065s11.671 26.085 26.065 26.085h331.223zM871.211 496.741c14.394 0 26.085-11.671 26.085-26.065s-11.691-26.065-26.085-26.065h-341.293c-14.394 0-26.065 11.671-26.065 26.065s11.671 26.065 26.065 26.065h341.293zM215.631 181.393c-18.358 1.301-41.741 5.806-59.738 10.65v64.143l18.138-1.481c23.423-1.381 55.214-3.844 78.196-1.782 4.464 0.4 9.669 1.161 13.733 3.143 7.728 3.704 7.627 30.029 2.522 33.653-2.943 2.082-6.286 2.883-9.85 2.883h-18.718c-14.114 0-26.606 1.582-37.497 4.745-11.091 3.223-20.44 8.068-28.067 14.534-7.788 6.646-13.613 15.435-17.457 26.386-3.704 10.65-5.605 23.323-5.605 38.017v24.444c0 13.613 2.082 25.585 6.226 35.915 6.887 17.117 21.181 30.83 37.777 38.618 5.806 2.723 12.312 4.785 20.34 6.126v28.448h59.138v-27.327c9.79-0.761 17.377-2.122 26.966-3.864 10.971-1.902 21.601-4.064 32.432-6.687v-64.243l-5.706 0.5c-21.87 2.011-47.304 3.16-73.006 3.163h-0.005c-7.087 0-20.6-0.18-25.945-5.525-4.384-4.364-3.744-30.49 0.981-34.354 3.563-2.883 9.629-3.383 13.994-3.383h23.323c15.015 0 30.55-2.563 43.723-10.070 11.872-6.747 20.82-15.956 26.806-27.567 2.943-5.726 5.185-11.872 6.667-18.438 3.243-14.314 2.242-30.31 2.242-45.004 0-11.491-1.041-21.741-3.063-30.69-2.082-9.149-5.265-16.957-9.489-23.383-13.213-20.040-36.916-28.748-59.919-31.271v-30.81h-59.138v30.51zM236.151 678.319c-3.406-7.371-7.843-13.671-13.213-19.039v0c-11.731-11.731-27.947-19.019-45.825-19.019s-34.113 7.287-45.825 19.019c-5.38 5.361-9.818 11.663-13.047 18.639l-0.166 0.399h-64.523v-631.337c117.154-47.907 288.822-72.050 460.85-72.050 170.887 0 340.973 23.863 457.046 71.99v631.397h-64.523c-3.406-7.371-7.843-13.671-13.213-19.039v0c-11.731-11.731-27.967-19.019-45.805-19.019-17.897 0-34.113 7.287-45.825 18.999-5.381 5.37-9.825 11.678-13.066 18.657l-0.167 0.401h-105.503c-3.392-7.383-7.832-13.692-13.212-19.058l-0.001-0.001c-11.731-11.711-27.947-18.999-45.825-18.999s-34.113 7.287-45.825 19.019c-5.38 5.361-9.818 11.663-13.047 18.639l-0.166 0.399h-105.523c-3.4-7.38-7.838-13.688-13.213-19.059v0c-11.731-11.711-27.947-18.999-45.825-18.999-17.897 0-34.113 7.287-45.845 19.019-5.366 5.365-9.797 11.666-13.026 18.637l-0.167 0.401h-105.523z" />
<glyph unicode="&#xe906;" glyph-name="warehousing-icon" d="M78.667 537.161h573.5v-347.084h27.833v333.75h46.667c0 21.5 0 43.083 0 64.583 0.252 1.445 0.395 3.111 0.395 4.81 0 5.442-1.477 10.539-4.054 14.912l0.075-0.137c-3.828 5.009-9.194 8.67-15.386 10.29l-0.197 0.044c-2.167 0.917-4.834 1.917-7.834 3.333v0l-314.917 135.167c-14.25 6.5-21.084 9.5-30.083 9.5-9.963-0.942-19.029-4.073-26.942-8.907l0.276 0.157-14.666-6.834-278.251-119.833c-4.5-2-8.333-3.667-11.917-5-7.435-1.973-13.728-6.077-18.372-11.611l-0.045-0.055c-4.75-6.667-4.667-12.666-4.583-25v-65.417h50.666v-458.334h192.833v27.667h-165v444.001zM745.667 354.744v-222.834h-443.75v-95.848c0.141-32.515 26.472-58.845 59-58.987h15.25l0.099-0.569c-1.212 5.801-1.85 11.813-1.85 17.973 0 0.063 0 0.125 0 0.178l0.003 0.141c1.53 49.055 41.779 88.352 91.205 88.352s89.675-39.297 91.208-88.492v-0.002c-0.002-6.219-0.609-12.296-1.667-17.582h212.501l0.099-0.569c-1.212 5.801-1.85 11.813-1.85 17.973 0 0.063 0 0.125 0 0.178l0.003 0.141c1.53 49.055 41.779 88.352 91.205 88.352s89.675-39.297 91.208-88.492v-0.002c-0.002-6.219-0.609-12.296-1.667-17.582h12.342c35.438 0.094 64.147 28.804 64.241 64.25v109.417c0 33.083-0.25 27.167-18.916 54.75l-89.167 126.75c-17.417 26.25-9.917 22.5-41.667 22.5h-128.167zM857.167 66.327h0.005c-0.029 0-0.059 0-0.088 0-39.581 0-71.667-32.086-71.667-71.667v0c0-39.581 32.086-71.667 71.667-71.667s71.667 32.086 71.667 71.667c0 39.552-32.039 71.619-71.583 71.667zM465.501 66.327v0c-39.581 0-71.667-32.086-71.667-71.667v0c0-39.581 32.086-71.667 71.667-71.667s71.667 32.086 71.667 71.667c0 39.581-32.086 71.667-71.667 71.667zM465.501 16.326c0.025 0 0.054 0 0.083 0 11.736 0 21.25-9.514 21.25-21.25s-9.514-21.25-21.25-21.25c-11.736 0-21.25 9.514-21.25 21.25v0c0 11.736 9.514 21.25 21.25 21.25v0zM857.167 16.827c12.012 0 21.75-9.738 21.75-21.75s-9.738-21.75-21.75-21.75c-12.012 0-21.75 9.738-21.75 21.75v0c0 12.012 9.738 21.75 21.75 21.75v0zM829.501 302.91h20.5l87-116.083v-35.25c0 0 0 0 0 0 0-8.577-6.93-15.536-15.495-15.583h-91.672c-8.801 0.047-15.917 7.193-15.917 16 0 0 0 0 0 0v0 135c0.047 8.772 7.145 15.869 15.913 15.917h0.005zM128.667 461.66h0.017c-0.117 0.004-0.234 0.006-0.351 0.006-5.42 0-9.825-4.348-9.916-9.756v-312.838c0.047-5.62 4.619-10.162 10.25-10.162 0 0 0 0 0 0h115v3.006c0.036 17.54 7.813 33.262 20.167 43.994v46.416h87.167v-32.25h29.083v32.25h87.167v-32.25h141.084v261.417l-0.001 0.021c-0.229 5.412-4.689 9.73-10.158 9.73-0.032 0-0.064 0-0.092 0h-469.417zM147.583 221.91h87.167v-65.5h-87.167v65.916zM264.25 400.911h86.75v-65.5h-87.167v65.916zM148.001 400.911h86.75v-65.5h-87.167v65.916zM380.501 311.41h86.75v-65.084h-87.167v65.5zM264.25 311.41h86.75v-65.084h-87.167v65.5zM148.001 311.41h86.75v-65.084h-87.167v65.5zM362.251 686.411l75-97.834h-147.417l72 98.084z" />
<glyph unicode="&#xe907;" glyph-name="web-page-website-svgrepo-com" d="M614.594 311.364c10.239 0 17.064 6.826 17.064 17.064v95.563l5.119-5.119c3.413-3.413 6.826-5.119 11.945-5.119s8.533 1.706 11.945 5.119l51.194 51.194c3.413 3.413 5.119 6.826 5.119 11.945s-1.706 8.533-5.119 11.945l-187.712 187.712c-3.413 3.413-6.826 5.119-11.945 5.119s-8.533-1.706-11.945-5.119l-187.712-187.712c-6.826-6.826-6.826-17.064 0-23.891l51.194-51.194c3.413-3.413 6.826-5.119 11.945-5.119s8.533 1.706 11.945 5.119l5.119 5.119v-95.563c0-10.239 6.826-17.064 17.064-17.064h204.781zM375.687 454.708l-27.303 27.303 163.821 163.821 163.821-163.821-27.303-27.303-124.572 124.572c-1.706 3.413-5.119 5.119-8.533 5.119 0 0-1.706 0-3.413 0-5.119 0-8.533-1.706-11.945-5.119l-124.574-124.572zM512.205 543.444l85.324-85.324v-112.627h-170.647v112.627l85.322 85.324zM1022.441-72.592c-3.413 5.119-10.239 8.533-15.358 8.533h-34.13v614.33c0 29.010-22.184 51.194-51.194 51.194h-34.13v238.904c0 10.239-6.826 17.064-17.064 17.064h-716.718c-10.239 0-17.064-6.826-17.064-17.064v-238.906h-34.13c-29.010 0-51.194-22.184-51.194-51.194v-614.33h-34.13c-5.119 0-13.652-1.706-15.358-6.826s-3.413-11.945 0-17.064l34.13-68.259c3.413-6.826 8.533-10.239 15.358-10.239h921.495c6.826 0 11.945 3.413 15.358 8.533l34.13 68.259c3.411 5.119 3.411 11.945 0 17.064zM921.759 567.335c10.239 0 17.064-6.826 17.064-17.064v-614.33h-51.194v631.394h34.13zM170.911-64.058v784.977h682.588v-784.979h-682.588zM170.911 823.306h682.588v-68.259h-682.588v68.259zM85.589 550.272c0 10.239 6.826 17.064 17.064 17.064h34.13v-631.394h-51.194v614.33zM962.714-132.319h-901.017l-17.064 34.13h935.149l-17.068-34.13zM239.171 806.242c-10.239 0-17.064-6.826-17.064-17.064s6.826-17.064 17.064-17.064 17.064 6.826 17.064 17.064c0 10.237-6.826 17.064-17.064 17.064zM307.429 806.242c-10.239 0-17.064-6.826-17.064-17.064s6.826-17.064 17.064-17.064c10.239 0 17.064 6.826 17.064 17.064s-6.826 17.064-17.064 17.064zM375.687 806.242c-10.239 0-17.064-6.826-17.064-17.064s6.826-17.064 17.064-17.064 17.064 6.826 17.064 17.064c0.002 10.237-6.826 17.064-17.064 17.064zM358.623 260.17h-102.388c-10.239 0-17.064-6.826-17.064-17.064v-102.388c0-10.239 6.826-17.064 17.064-17.064h102.388c10.239 0 17.064 6.826 17.064 17.064v102.388c0 10.239-6.826 17.064-17.064 17.064zM341.559 157.782h-68.259v68.259h68.259v-68.259zM768.176 243.107h-221.841c-10.239 0-17.064-6.826-17.064-17.064s6.826-17.064 17.064-17.064h221.841c10.239 0 17.064 6.826 17.064 17.064s-6.826 17.064-17.064 17.064zM478.076 243.107h-51.194c-10.239 0-17.064-6.826-17.064-17.064s6.826-17.064 17.064-17.064h51.194c10.239 0 17.064 6.826 17.064 17.064s-6.826 17.064-17.064 17.064zM768.176 174.846h-68.259c-10.239 0-17.064-6.826-17.064-17.064s6.826-17.064 17.064-17.064h68.259c10.239 0 17.064 6.826 17.064 17.064s-6.826 17.064-17.064 17.064zM648.724 157.782c0 10.239-6.826 17.064-17.064 17.064h-204.777c-10.239 0-17.064-6.826-17.064-17.064s6.826-17.064 17.064-17.064h204.777c10.237 0 17.064 6.826 17.064 17.064zM358.623 89.524h-102.388c-10.239 0-17.064-6.826-17.064-17.064v-102.388c0-10.239 6.826-17.064 17.064-17.064h102.388c10.239 0 17.064 6.826 17.064 17.064v102.388c0 10.237-6.826 17.064-17.064 17.064zM341.559-12.864h-68.259v68.259h68.259v-68.259zM768.176 72.458h-221.841c-10.239 0-17.064-6.826-17.064-17.064s6.826-17.064 17.064-17.064h221.841c10.239 0 17.064 6.826 17.064 17.064s-6.826 17.064-17.064 17.064zM426.881 72.458c-10.239 0-17.064-6.826-17.064-17.064s6.826-17.064 17.064-17.064h51.194c10.239 0 17.064 6.826 17.064 17.064s-6.826 17.064-17.064 17.064h-51.194zM768.176 4.199h-68.259c-10.239 0-17.064-6.826-17.064-17.064s6.826-17.064 17.064-17.064h68.259c10.239 0 17.064 6.826 17.064 17.064s-6.826 17.064-17.064 17.064zM631.658 4.199h-204.777c-10.239 0-17.064-6.826-17.064-17.064s6.826-17.064 17.064-17.064h204.777c10.239 0 17.064 6.826 17.064 17.064s-6.826 17.064-17.064 17.064z" />
<glyph unicode="&#xe908;" glyph-name="wholesale-svgrepo-com" d="M512.499 857.382l-512.499-301.017v-722.759h1025.001v722.759l-512.501 301.017zM395.8-105.501h-111.617v111.615h111.617v-111.615zM395.8 67.010h-111.617v111.615h111.617v-111.615zM395.8 239.519h-111.617v111.617h111.617v-111.617zM568.308-105.501h-111.615v111.615h111.615v-111.615zM568.308 67.010h-111.615v111.615h111.615v-111.615zM568.308 239.519h-111.615v111.617h111.615v-111.617zM740.818-105.501h-111.617v111.615h111.617v-111.615zM740.82 67.008h-111.617v111.615h111.617v-111.615zM740.82 239.519h-111.617v111.617h111.617v-111.617zM832.165-105.501v0h-30.45v517.528h-578.424v-517.528h-30.448v547.976h639.319v-547.976zM893.056-105.501v608.872h-761.108v-608.872h-71.053v627.011l451.606 265.25 451.606-265.252v-627.009h-71.049z" />
<glyph unicode="&#xe909;" glyph-name="mailchimp" d="M768.648 354.328c7.054 0.898 14.193 0.898 21.247 0 3.805 8.765 4.445 23.854 1.026 40.27-5.13 24.411-11.971 39.201-26.207 36.893s-14.791-20.008-9.661-44.417c2.865-13.722 7.952-25.479 13.594-32.747zM646.382 335.005c10.217-4.488 16.459-7.438 18.895-4.874 1.583 1.625 1.111 4.703-1.282 8.677-5.045 8.251-15.39 16.587-26.377 21.247-8.121 3.464-17.568 5.478-27.487 5.478-15.938 0-30.659-5.2-42.563-13.996l0.195 0.138c-6.841-5.002-13.253-11.971-12.397-16.16 0.341-1.367 1.325-2.393 3.72-2.737 5.644-0.642 25.266 9.277 47.881 10.687 15.989 0.983 29.242-4.019 39.415-8.464zM625.862 323.291c-13.253-2.137-20.563-6.497-25.266-10.559-4.019-3.505-6.497-7.395-6.497-10.132l1.026-2.436 2.18-0.855c2.993 0 9.748 2.737 9.748 2.737 8.856 3.445 19.106 5.441 29.821 5.441 4.563 0 9.043-0.361 13.41-1.059l-0.48 0.063c6.625-0.77 9.833-1.197 11.243 1.111 0.427 0.642 0.983 2.095-0.341 4.275-3.121 5.045-16.544 13.551-34.841 11.414zM727.393 280.285c8.978-4.445 18.895-2.694 22.145 3.848 3.249 6.625-1.453 15.561-10.473 19.963-8.978 4.445-18.895 2.694-22.145-3.848-3.249-6.625 1.453-15.561 10.473-19.963zM785.32 330.986c-7.31 0.128-13.423-7.909-13.551-17.999-0.171-10.047 5.599-18.297 12.911-18.425s13.423 7.909 13.594 17.956c0.128 10.047-5.644 18.297-12.954 18.468zM293.522 149.598c-1.796 2.265-4.789 1.583-7.696 0.898-2.044-0.571-4.396-0.912-6.824-0.941h-0.017c-0.097-0.002-0.212-0.004-0.327-0.004-5.009 0-9.437 2.482-12.124 6.284l-0.031 0.046c-3.334 5.13-3.121 12.781 0.514 21.546l1.711 3.933c5.9 13.167 15.731 35.268 4.703 56.302-8.293 15.817-21.845 25.735-38.133 27.787-1.868 0.252-4.026 0.396-6.218 0.396-14.121 0-26.845-5.98-35.779-15.544l-0.026-0.028c-16.203-17.869-18.724-42.237-15.561-50.873 1.154-3.121 2.95-4.019 4.232-4.189 2.779-0.384 6.841 1.625 9.405 8.549l0.727 2.223c1.111 3.635 3.249 10.388 6.713 15.817 5.329 8.086 14.369 13.349 24.638 13.349 5.991 0 11.563-1.792 16.212-4.868l-0.109 0.068c11.371-7.481 15.731-21.375 10.902-34.671-2.521-6.883-6.583-20.008-5.687-30.78 1.839-21.887 15.262-30.652 27.275-31.635 11.713-0.427 19.921 6.199 21.973 11.030 1.282 2.822 0.213 4.573-0.427 5.343zM970.042 189.612c-0.427 1.583-3.334 12.227-7.353 25.051l-8.123 21.802c16.032 24.068 16.288 45.572 14.193 57.712-2.308 15.091-8.549 27.958-21.205 41.211-12.611 13.338-38.476 26.932-74.813 37.107l-19.025 5.301c-0.085 0.77-0.983 45.016-1.839 63.996-0.557 13.679-1.753 35.14-8.379 56.217-7.909 28.6-21.674 53.565-38.903 69.555 47.452 49.248 77.078 103.541 76.993 150.096-0.128 89.561-109.91 116.708-245.214 60.534l-28.643-12.184c-13.385 13.184-30.511 29.998-47.658 46.792l-4.925 4.808c-154.329 134.835-636.592-402.193-482.435-532.667l33.73-28.557c-6.62-17.232-10.455-37.167-10.455-57.999 0-6.571 0.381-13.056 1.124-19.428l-0.073 0.776c3.635-35.91 22.103-70.282 52.070-96.873 28.429-25.223 65.835-41.253 102.131-41.211 59.979-138.51 197.077-223.497 357.818-228.286 172.453-5.13 317.206 75.924 377.911 221.531 3.976 10.26 20.776 56.302 20.776 96.915 0 40.869-23.042 57.797-37.706 57.797zM264.537 80.6c-4.19-0.751-9.015-1.179-13.939-1.179-0.722 0-1.439 0.009-2.156 0.027l0.106-0.002c-52.070 1.41-108.329 48.35-113.929 104.097-6.199 61.56 25.223 108.927 80.798 120.127 5.579 1.165 11.993 1.833 18.56 1.833 1.697 0 3.382-0.044 5.058-0.132l-0.234 0.010c31.164-1.711 77.078-25.65 87.551-93.665 9.277-60.193-5.471-121.539-61.816-131.115zM206.398 340.52c-34.628-6.713-65.152-26.377-83.791-53.523-11.158 9.319-31.934 27.361-35.611 34.372-29.797 56.643 32.491 166.811 76.009 229.012 107.602 153.729 275.951 270.096 353.971 248.977 12.653-3.592 54.634-52.326 54.634-52.326s-77.933-43.305-150.225-103.711c-97.385-75.111-170.958-184.296-214.991-302.799zM753.043 103.598c1.073 0.495 1.805 1.565 1.805 2.803 0 0.082-0.003 0.163-0.009 0.243l0.001-0.011c-0.148 1.455-1.367 2.583-2.851 2.583-0.11 0-0.219-0.006-0.326-0.018l0.013 0.001c0 0-81.568-12.099-158.646 16.203 8.379 27.318 30.695 17.442 64.467 14.705 8.327-0.527 18.059-0.826 27.859-0.826 45.486 0 89.467 6.452 131.075 18.492l-3.323-0.824c34.884 10.047 80.713 29.839 116.367 57.97 11.971-26.42 16.245-55.489 16.245-55.489s9.277 1.668 17.058-3.121c7.31-4.531 12.696-13.937 9.021-38.261-7.481-45.443-26.761-82.336-59.167-116.28-19.904-21.522-43.44-39.336-69.694-52.542l-1.399-0.639c-13.004-7.042-28.337-13.695-44.267-19.049l-2.116-0.618c-122.179-39.971-247.266 3.976-287.581 98.325-2.905 6.168-5.673 13.579-7.859 21.236l-0.263 1.080c-17.143 62.202-2.566 136.8 43.049 183.782 2.779 2.993 5.644 6.54 5.644 10.945 0 3.72-2.351 7.609-4.36 10.388-15.947 23.171-71.222 62.671-60.107 139.109 7.952 54.935 55.918 93.579 100.591 91.271l11.329-0.642c19.366-1.154 36.251-3.635 52.241-4.317 26.676-1.154 50.658 2.737 79.087 26.463 9.575 7.995 17.271 14.963 30.268 17.143 1.367 0.213 4.746 1.453 11.542 1.111 7.289-0.286 13.991-2.577 19.634-6.329l-0.14 0.088c22.785-15.177 25.991-51.942 27.19-78.874 0.685-15.39 2.521-52.497 3.163-63.185 1.453-24.368 7.824-27.787 20.776-32.062 7.267-2.436 14.065-4.232 24.025-7.011 30.138-8.507 48.009-17.101 59.295-28.172 6.755-6.883 9.833-14.236 10.817-21.247 3.592-25.991-20.093-58.098-82.85-87.253-68.614-31.891-151.763-39.971-209.261-33.559l-20.136 2.265c-45.999 6.199-72.205-53.309-44.632-94.093 17.783-26.292 66.263-43.391 114.699-43.391 111.15 0 196.565 47.495 228.329 88.578l2.566 3.635c1.54 2.351 0.256 3.635-1.711 2.308-25.949-17.783-141.247-88.449-264.623-67.161 0 0-14.963 2.436-28.643 7.781-10.859 4.232-33.602 14.705-36.337 38.090 99.522-30.823 162.151-1.668 162.151-1.625zM595.381 122.238l0.043-0.043zM404.971 551.022c38.261 44.289 85.329 82.765 127.48 104.353 1.453 0.727 2.993-0.855 2.223-2.265-3.377-6.071-9.833-19.11-11.843-28.941-0.025-0.11-0.039-0.235-0.039-0.364 0-0.945 0.766-1.711 1.711-1.711 0.348 0 0.674 0.104 0.944 0.283l-0.006-0.004c26.249 17.911 71.863 37.107 111.919 39.545 1.711 0.128 2.566-2.095 1.154-3.163-6.583-5.087-12.525-11.030-17.57-17.655-0.213-0.282-0.342-0.64-0.342-1.027 0-0.93 0.742-1.687 1.666-1.71h0.002c28.086-0.213 67.716-10.047 93.537-24.581 1.711-0.983 0.514-4.36-1.453-3.933-39.073 8.978-103.029 15.817-169.461-0.427-59.295-14.492-104.567-36.851-137.569-60.918-1.711-1.239-3.677 0.983-2.351 2.521z" />
<glyph unicode="&#xe90a;" glyph-name="mail" d="M855.671 475.113v86.168l-342.669-214.418-342.669 214.418v-86.168l342.669-212.414zM855.671 647.451q34.066 0 59.116-26.050t25.048-60.118v-513.001q0-34.066-25.048-60.118t-59.116-26.050h-685.338q-34.066 0-59.116 26.050t-25.048 60.118v513.001q0 34.066 25.048 60.118t59.116 26.050h685.338z" />
<glyph unicode="&#xe90b;" glyph-name="file-submission" d="M342.669 176.531l170.332 170.332 170.332-170.332-60.118-62.122-68.133 68.133v-176.344h-84.164v176.344l-68.133-66.13zM769.502-37.888v470.919h-214.418v214.418h-298.583v-685.338h513.001zM599.17 731.615l256.5-256.5v-513.001q0-34.066-26.050-59.116t-60.118-25.048h-513.001q-34.066 0-60.118 25.048t-26.050 59.116l2.004 685.338q0 34.066 25.048 59.116t59.116 25.048h342.669z" />
<glyph unicode="&#xe90c;" glyph-name="submission-message" d="M555.084 433.031h236.462l-236.462 234.458v-234.458zM256.5 731.615h342.669l256.5-256.5v-513.001q0-34.066-26.050-59.116t-60.118-25.048h-513.001q-34.066 0-60.118 25.048t-26.050 59.116l2.004 685.338q0 34.066 25.048 59.116t59.116 25.048z" />
<glyph unicode="&#xe90d;" glyph-name="settings" d="M737.439 304.781q0 20.040-2.004 30.058l64.126 48.094q10.020 8.016 2.004 20.040l-60.118 104.204q-6.012 10.020-18.036 6.012l-74.144-30.058q-26.050 20.040-50.098 30.058l-12.024 78.152q-4.008 12.024-14.028 12.024h-120.234q-12.024 0-14.028-12.024l-12.024-80.156q-32.062-14.028-50.098-28.054l-74.144 30.058q-10.020 4.008-18.036-8.016l-60.118-102.2q-2.004-2.004-2.004-8.016 0-10.020 4.008-12.024l64.126-48.094q-2.004-10.020-2.004-30.058t2.004-30.058l-64.126-48.094q-4.008-2.004-4.008-12.024 0-6.012 2.004-8.016l60.118-104.204q6.012-10.020 18.036-6.012l74.144 30.058q26.050-20.040 50.098-30.058l12.024-78.152q4.008-12.024 14.028-12.024h120.234q12.024 0 14.028 12.024l12.024 80.156q32.062 14.028 50.098 28.054l74.144-30.058q10.020-4.008 18.036 8.016l60.118 102.2q8.016 12.024-2.004 20.040l-64.126 48.094q2.004 10.020 2.004 30.058zM811.585 689.533q36.070 0 61.12-25.048t25.048-61.12v-597.166q0-36.070-25.048-61.12t-61.12-25.048h-597.166q-36.070 0-61.12 25.048t-25.048 61.12v597.166q0 36.070 25.048 61.12t61.12 25.048h597.166zM513.001 390.949q34.066 0 60.118-26.050t26.050-60.118-26.050-60.118-60.118-26.050-60.118 26.050-26.050 60.118 26.050 60.118 60.118 26.050z" />
<glyph unicode="&#xe90e;" glyph-name="cross" d="M727.42 150.48l-154.302 154.302 154.302 154.302-60.118 60.118-154.302-154.302-154.302 154.302-60.118-60.118 154.302-154.302-154.302-154.302 60.118-60.118 154.302 154.302 154.302-154.302zM513.001 731.615q176.344 0 301.589-125.244t125.244-301.589-125.244-301.589-301.589-125.244-301.589 125.244-125.244 301.589 125.244 301.589 301.589 125.244z" />
<glyph unicode="&#xe90f;" glyph-name="icon-yes" d="M426.833 90.362l384.751 384.751-60.118 62.122-324.634-324.634-152.298 152.298-60.118-60.118zM513.001 731.615q176.344 0 301.589-125.244t125.244-301.589-125.244-301.589-301.589-125.244-301.589 125.244-125.244 301.589 125.244 301.589 301.589 125.244z" />
<glyph unicode="&#xe910;" glyph-name="arrow-right" d="M829.625 390.281l-311.443 311.443 72.539 72.539 435.282-435.282-435.282-435.282-72.539 72.539 311.443 311.443h-829.625v102.6z" />
<glyph unicode="&#xe911;" glyph-name="calendar" d="M940.845 599.586v-653.564c0-51.3-43.092-90.288-90.288-90.288h-675.11c-47.196 4.104-90.288 43.092-90.288 94.392v649.46c0 51.3 43.092 90.288 90.288 90.288h89.262v98.496c5.13 12.312 13.338 20.52 25.65 20.52h76.95c13.338 0 21.546-8.208 21.546-20.52v-98.496h244.188v98.496c0 12.312 8.208 20.52 21.546 20.52h76.95c12.312 0 20.52-8.208 20.52-20.52v-98.496h90.288c55.404 0 98.496-38.988 98.496-90.288zM850.557-41.666v556.094h-675.11v-551.99c0-4.104 4.104-12.312 12.312-12.312h650.486c4.104 0 12.312 4.104 12.312 8.208zM367.309 334.877h-76.95c-12.312 0-20.52 8.208-20.52 21.546v76.95c0 12.312 8.208 21.546 20.52 21.546h76.95c13.338 0 21.546-9.234 21.546-21.546v-72.846c0-13.338-8.208-25.65-21.546-25.65zM572.51 356.423c0-13.338-8.208-21.546-20.52-21.546h-76.95c-13.338 0-21.546 8.208-21.546 21.546v76.95c0 12.312 8.208 21.546 21.546 21.546h76.95c12.312 0 20.52-9.234 20.52-21.546v-76.95zM757.19 356.423c0-13.338-9.234-21.546-21.546-21.546h-76.95c-13.338 0-21.546 8.208-21.546 21.546v76.95c0 12.312 8.208 21.546 21.546 21.546h76.95c12.312 0 21.546-9.234 21.546-21.546v-76.95zM572.51 193.289c0-12.312-8.208-20.52-20.52-20.52h-76.95c-13.338 0-21.546 8.208-21.546 20.52v72.846c0 13.338 8.208 21.546 21.546 21.546h76.95c12.312 0 20.52-8.208 20.52-21.546v-72.846zM388.855 193.289c0-12.312-8.208-20.52-21.546-20.52h-76.95c-12.312 0-20.52 8.208-20.52 20.52v72.846c0 13.338 8.208 21.546 20.52 21.546h76.95c13.338 0 21.546-8.208 21.546-21.546v-72.846zM757.19 193.289c0-12.312-9.234-20.52-21.546-20.52h-76.95c-13.338 0-21.546 8.208-21.546 20.52v72.846c0 13.338 8.208 21.546 21.546 21.546h76.95c12.312 0 21.546-8.208 21.546-21.546v-72.846zM572.51 31.18c0-12.312-8.208-21.546-20.52-21.546h-76.95c-13.338 0-21.546 9.234-21.546 21.546v72.846c0 12.312 8.208 21.546 21.546 21.546h76.95c12.312 0 20.52-9.234 20.52-21.546v-72.846zM388.855 31.18c0-12.312-8.208-21.546-21.546-21.546h-76.95c-12.312 0-20.52 9.234-20.52 21.546v72.846c0 12.312 8.208 21.546 20.52 21.546h76.95c13.338 0 21.546-9.234 21.546-21.546v-72.846zM757.19 31.18c0-12.312-9.234-21.546-21.546-21.546h-76.95c-13.338 0-21.546 9.234-21.546 21.546v72.846c0 12.312 8.208 21.546 21.546 21.546h76.95c12.312 0 21.546-9.234 21.546-21.546v-72.846z" />
<glyph unicode="&#xe912;" glyph-name="arrow-left" d="M196.378 390.281l311.443 311.443-72.539 72.539-435.282-435.282 435.282-435.282 72.539 72.539-311.443 311.443h829.625v102.6h-829.625z" />
<glyph unicode="&#xe913;" glyph-name="arrow-up" d="M461.701 655.605l-311.443-311.443-72.539 72.539 435.282 435.282 435.282-435.282-72.539-72.539-311.443 311.443v-829.625h-102.6v829.625z" />
<glyph unicode="&#xe914;" glyph-name="arrow-down" d="M461.701 22.357l-311.443 311.443-72.539-72.539 435.282-435.282 435.282 435.282-72.539 72.539-311.443-311.443v829.625h-102.6z" />
<glyph unicode="&#xe915;" glyph-name="menu" d="M128.25 561.282h769.502v-86.168h-769.502v86.168zM128.25 262.699v84.164h769.502v-84.164h-769.502zM128.25 48.28v86.168h769.502v-86.168h-769.502z" />
<glyph unicode="&#xe916;" glyph-name="send" d="M86.168-79.97v298.583l641.252 86.168-641.252 86.168v298.583l897.753-384.751z" />
<glyph unicode="&#xe917;" glyph-name="link" d="M727.42 519.199q88.172 0 150.294-63.124t62.122-151.296-62.122-151.296-150.294-63.124h-172.336v82.16h172.336q54.106 0 93.182 39.076t39.076 93.182-39.076 93.182-93.182 39.076h-172.336v82.16h172.336zM342.669 262.699v84.164h340.665v-84.164h-340.665zM166.324 304.781q0-54.106 39.076-93.182t93.182-39.076h172.336v-82.16h-172.336q-88.172 0-150.294 63.124t-62.122 151.296 62.122 151.296 150.294 63.124h172.336v-82.16h-172.336q-54.106 0-93.182-39.076t-39.076-93.182z" />
<glyph unicode="&#xe918;" glyph-name="resize" d="M768.765-89.535v61.944h127.866v127.866h65.952v-189.81h-193.818zM896.631 647.84h-127.866v61.944h193.818v-189.81h-65.952v127.866zM97.31 519.974h-65.92v189.81h193.818v-61.944h-127.898v-127.866zM159.255 581.92h675.431v-543.557h-675.431v543.557zM225.176 100.275h543.557v419.699h-543.557v-419.699zM289.14 454.022h417.679v-287.826h-417.679v287.826zM97.31-27.591h127.866v-61.944h-193.786v189.81h65.952v-127.866z" />
<glyph unicode="&#xe919;" glyph-name="crop-free" d="M811.585 689.533q34.066 0 60.118-26.050t26.050-60.118v-170.332h-86.168v170.332h-170.332v86.168h170.332zM811.585 6.198v170.332h86.168v-170.332q0-34.066-26.050-60.118t-60.118-26.050h-170.332v86.168h170.332zM214.418 176.531v-170.332h170.332v-86.168h-170.332q-34.066 0-60.118 26.050t-26.050 60.118v170.332h86.168zM128.25 603.364q0 34.066 26.050 60.118t60.118 26.050h170.332v-86.168h-170.332v-170.332h-86.168v170.332z" />
<glyph unicode="&#xe91a;" glyph-name="text-fields" d="M919.795 433.031v-128.25h-128.25v-298.583h-128.25v298.583h-128.25v128.25h384.751zM106.208 647.451h557.087v-128.25h-214.418v-513.001h-128.25v513.001h-214.418v128.25z" />
<glyph unicode="&#xe91b;" glyph-name="support" d="M513.001 731.615q-88.172 0-165.322-33.064t-136.266-92.18-92.18-136.266-33.064-165.322 33.064-165.322 92.18-136.266 136.266-92.18 165.322-33.064 165.322 33.064 136.266 92.18 92.18 136.266 33.064 165.322-33.064 165.322-92.18 136.266-136.266 92.18-165.322 33.064zM831.623 427.020l-118.23-48.094q-16.032 44.086-49.096 77.15t-77.15 49.096l48.094 118.23q68.133-26.050 119.232-77.15t77.15-119.232zM513.001 176.531q-36.070 0-65.128 17.034t-46.090 46.090-17.034 65.128 17.034 65.128 46.090 46.090 65.128 17.034 65.128-17.034 46.090-46.090 17.034-65.128-17.034-65.128-46.090-46.090-65.128-17.034zM390.763 623.403l50.098-118.23q-44.086-16.032-78.152-49.096t-50.098-79.154l-118.23 50.098q26.050 68.133 77.15 119.232t119.232 77.15zM194.38 182.543l118.23 48.094q16.032-44.086 49.096-77.15t79.154-49.096l-50.098-118.23q-68.133 26.050-119.232 77.15t-77.15 119.232zM635.24-13.841l-48.094 118.23q44.086 16.032 77.15 49.096t49.096 79.154l118.23-50.098q-26.050-68.133-77.15-119.232t-119.232-77.15z" />
<glyph unicode="&#xe91c;" glyph-name="create" d="M885.729 517.196l-78.152-78.152-160.313 160.313 78.152 78.152q12.024 12.024 30.058 12.024t30.058-12.024l100.196-100.196q12.024-12.024 12.024-30.058t-12.024-30.058zM128.25 80.343l472.923 472.923 160.313-160.313-472.923-472.923h-160.313v160.313z" />
<glyph unicode="&#xe91d;" glyph-name="keyboard_arrow_down" d="M316.618 451.067l196.384-196.384 196.384 196.384 60.118-60.118-256.5-256.5-256.5 256.5z" />
<glyph unicode="&#xe91e;" glyph-name="button-appearance-tab" d="M541.858-174.021c-19.238 0-41.682 0-60.918 0-3.206 0-6.412 0-9.618 3.206-19.238 3.206-38.476 3.206-54.506 6.412-112.219 22.444-208.407 73.744-285.357 160.313-67.332 73.744-109.012 160.313-125.044 256.5-3.206 19.238-6.412 38.476-6.412 57.712s0 41.682 0 60.918c0 3.206 0 6.412 3.206 9.618 3.206 19.238 3.206 38.476 6.412 57.712 22.444 112.219 73.744 205.2 160.313 282.151 73.744 67.332 160.313 109.012 256.5 125.044 19.238 3.206 38.476 6.412 57.712 6.412s41.682 0 60.918 0c3.206 0 6.412 0 9.618-3.206 19.238-3.206 38.476-3.206 54.506-6.412 112.219-22.444 208.407-73.744 285.357-160.313 67.332-73.744 109.012-160.313 125.044-256.5 3.206-19.238 6.412-38.476 6.412-57.712s0-41.682 0-60.918c0-3.206 0-6.412-3.206-9.618-3.206-19.238-3.206-38.476-6.412-57.712-22.444-112.219-73.744-205.2-160.313-282.151-73.744-67.332-160.313-109.012-256.5-125.044-19.238-3.206-38.476-3.206-57.712-6.412zM362.307 338.981c0-60.918 0-121.838 0-182.756 0-32.062 28.856-48.094 57.712-32.062 12.826 6.412 25.65 16.032 38.476 22.444 92.982 51.3 182.756 105.806 275.738 160.313 6.412 3.206 16.032 12.826 19.238 19.238 9.618 19.238 3.206 35.268-19.238 48.094-57.712 35.268-118.632 67.332-176.344 102.6-44.888 25.65-89.776 51.3-137.87 76.95-6.412 3.206-19.238 6.412-25.65 6.412-19.238 0-32.062-16.032-32.062-38.476 0-60.918 0-121.838 0-182.756z" />
<glyph unicode="&#xe91f;" glyph-name="enquiry-form-tab" d="M647.664 294.093c-83.362 0-147.488-67.332-147.488-147.488 0-83.362 64.126-147.488 147.488-150.694 80.156 0 147.488 67.332 150.694 147.488-3.206 83.362-67.332 150.694-150.694 150.694zM952.259 338.981c0 144.282 0 288.564 0 432.845 0 48.094-28.856 80.156-76.95 80.156-192.376 0-387.957 0-580.333 0-25.65 0-48.094-9.618-64.126-25.65-44.888-44.888-86.569-89.776-131.456-131.456-19.238-19.238-25.65-38.476-25.65-60.918 0-243.676 0-484.145 0-727.821 0-48.094 32.062-80.156 80.156-80.156 240.47 0 480.939 0 721.409 0 9.618 0 16.032 0 25.65 3.206 32.062 9.618 54.506 38.476 54.506 73.744-3.206 144.282-3.206 288.564-3.206 436.051zM266.12 621.132h294.976c19.238 0 35.268-16.032 35.268-35.268s-16.032-35.268-35.268-35.268h-294.976c-19.238 0-35.268 16.032-35.268 35.268s16.032 35.268 35.268 35.268zM230.85 454.406c0 19.238 16.032 35.268 35.268 35.268h192.376c19.238 0 35.268-16.032 35.268-35.268s-16.032-35.268-35.268-35.268h-192.376c-19.238-3.206-35.268 12.826-35.268 35.268zM900.959-74.627c-3.206-16.032-9.618-25.65-22.444-28.856-12.826-6.412-25.65-3.206-38.476 6.412-19.238 16.032-35.268 35.268-54.506 54.506-3.206 3.206-6.412 6.412-9.618 12.826-109.012-73.744-237.263-41.682-304.594 41.682-67.332 86.569-60.918 211.613 16.032 291.77s201.994 89.776 291.77 22.444c86.569-64.126 125.044-195.582 48.094-307.801 19.238-19.238 41.682-41.682 60.918-60.918 9.618-9.618 16.032-19.238 12.826-32.062z" />
<glyph unicode="&#xe920;" glyph-name="exclusion-tab" d="M634.839 470.438c-64.126 60.918-157.106 57.712-211.613 22.444 80.156-80.156 163.52-163.52 243.676-243.676 44.888 67.332 28.856 163.52-32.062 221.232zM384.751 213.937c57.712-57.712 150.694-70.538 218.026-28.856-80.156 80.156-163.52 163.52-243.676 243.676-41.682-64.126-32.062-157.106 25.65-214.82zM881.721 768.62h-737.439c-80.156 0-144.282-64.126-144.282-144.282v-570.714c0-80.156 64.126-144.282 144.282-144.282h734.233c80.156 0 144.282 64.126 144.282 144.282v570.714c3.206 80.156-60.918 144.282-141.076 144.282zM513.001 76.068c-144.282 0-259.707 118.632-262.914 262.914 0 144.282 118.632 262.914 262.914 262.914s262.914-118.632 262.914-262.914c0-144.282-118.632-262.914-262.914-262.914z" />
<glyph unicode="&#xe921;" glyph-name="general-tab" d="M513.001 338.981c-57.712 0-102.6-44.888-102.6-102.6s44.888-102.6 102.6-102.6c57.712 0 102.6 44.888 102.6 102.6s-44.888 102.6-102.6 102.6zM968.291 582.656c-109.012 76.95-221.232 153.9-333.451 227.644-80.156 54.506-166.726 54.506-246.882 0-112.219-73.744-221.232-150.694-330.245-227.644-70.538-48.094-76.95-141.076-19.238-201.994 32.062-32.062 44.888-67.332 44.888-112.219 0-76.95 0-157.106 0-234.057 0-32.062 6.412-60.918 19.238-89.776 41.682-80.156 109.012-118.632 195.582-118.632 70.538 0 141.076 0 211.613 0 0 0 0 0 0 0 73.744 0 147.488 0 224.438 0 112.219 3.206 208.407 92.982 205.2 211.613-3.206 76.95 0 153.9 0 230.85 0 44.888 12.826 80.156 44.888 112.219 60.918 57.712 51.3 153.9-16.032 201.994zM750.265 153.018c-3.206-32.062-16.032-57.712-41.682-76.95-32.062-19.238-64.126-38.476-96.188-57.712-19.238-9.618-38.476-19.238-57.712-28.856-28.856-12.826-54.506-12.826-83.362 0-54.506 25.65-105.806 54.506-153.9 89.776-25.65 19.238-38.476 44.888-41.682 76.95 0 25.65-3.206 54.506-3.206 86.569 0 25.65 3.206 54.506 3.206 86.569 3.206 28.856 16.032 51.3 38.476 67.332s44.888 28.856 67.332 41.682c25.65 16.032 51.3 28.856 76.95 41.682 32.062 19.238 67.332 19.238 102.6 0 32.062-19.238 67.332-35.268 99.394-54.506 16.032-9.618 32.062-19.238 44.888-28.856 25.65-19.238 38.476-44.888 41.682-76.95 6.412-54.506 6.412-112.219 3.206-166.726z" />
<glyph unicode="&#xe922;" glyph-name="live-preview-tab" d="M1026.003 505.706c0 92.982-99.394 153.9-179.55 105.806-16.032-9.618-28.856-16.032-44.888-25.65-6.412-3.206-9.618-6.412-16.032-9.618-22.444 70.538-83.362 115.426-157.106 115.426-153.9 0-307.801 0-464.908 0-89.776 0-163.52-73.744-163.52-163.52 0-125.044 0-253.294 0-378.338 0-89.776 73.744-163.52 163.52-163.52 153.9 0 311.007 0 464.908 0 70.538 0 118.632 35.268 150.694 96.188 25.65-12.826 51.3-25.65 73.744-35.268 80.156-38.476 169.932 19.238 173.138 105.806 0 115.426 0 234.057 0 352.688zM442.464 457.612c0 22.444 19.238 38.476 41.682 38.476s38.476-19.238 38.476-41.682c0-6.412 0-9.618 0-16.032s0-9.618 0-16.032c0-22.444-19.238-38.476-38.476-38.476-22.444 0-38.476 16.032-41.682 38.476 0 12.826 0 22.444 0 35.268zM269.326 454.406c0 22.444 19.238 41.682 44.888 41.682 22.444 0 35.268-19.238 35.268-41.682 0-3.206 0-9.618 0-12.826 0 0 0 0 0 0 0-6.412 0-12.826 0-22.444-3.206-19.238-22.444-35.268-44.888-35.268-19.238 0-35.268 19.238-35.268 38.476 0 9.618 0 22.444 0 32.062zM570.714 252.412c-51.3-44.888-109.012-67.332-176.344-67.332-64.126 0-125.044 22.444-173.138 67.332-19.238 16.032-19.238 38.476-6.412 57.712 12.826 16.032 38.476 19.238 57.712 3.206 19.238-19.238 41.682-32.062 67.332-38.476 64.126-19.238 121.838-6.412 173.138 35.268 25.65 22.444 57.712 16.032 70.538-12.826 6.412-16.032 0-32.062-12.826-44.888z" />
<glyph unicode="&#xe923;" glyph-name="upgrade-to-pro-tab" d="M513.001-174.021c-282.151 0-513.001 230.85-513.001 513.001s230.85 513.001 513.001 513.001c282.151 0 513.001-230.85 513.001-513.001s-230.85-513.001-513.001-513.001zM513.001 633.956c-16.032 0-25.65-6.412-32.062-22.444-22.444-44.888-41.682-86.569-64.126-131.456-3.206-6.412-6.412-9.618-16.032-12.826-48.094-6.412-96.188-12.826-144.282-19.238-16.032-3.206-25.65-9.618-32.062-22.444-3.206-16.032 0-25.65 12.826-35.268 35.268-32.062 70.538-67.332 102.6-102.6 3.206-3.206 6.412-9.618 6.412-12.826-6.412-48.094-16.032-99.394-25.65-147.488 0-3.206 0-9.618 0-16.032 6.412-22.444 28.856-32.062 48.094-19.238 44.888 22.444 86.569 44.888 131.456 67.332 6.412 3.206 12.826 3.206 19.238 0 44.888-22.444 86.569-44.888 131.456-67.332 12.826-6.412 25.65-6.412 35.268 3.206s16.032 19.238 12.826 32.062c-9.618 48.094-16.032 96.188-25.65 147.488 0 9.618 0 12.826 6.412 19.238 35.268 32.062 70.538 67.332 105.806 102.6 9.618 9.618 16.032 19.238 12.826 32.062-3.206 16.032-12.826 25.65-35.268 28.856-44.888 6.412-92.982 12.826-137.87 19.238-9.618 0-12.826 3.206-16.032 12.826-22.444 44.888-41.682 86.569-64.126 131.456-6.412 3.206-16.032 9.618-32.062 12.826z" />
<glyph unicode="&#xe924;" glyph-name="next" d="M224.438 800.682c-3.206-3.206-3.206-6.412-3.206-12.826 0-9.618 6.412-19.238 12.826-28.856 131.456-128.25 400.782-400.782 400.782-400.782l19.238-19.238-19.238-19.238c-3.206-3.206-269.326-266.12-397.576-394.37-3.206-3.206-6.412-6.412-9.618-9.618-3.206-6.412-6.412-12.826-6.412-19.238s3.206-12.826 6.412-16.032l6.412-9.618c16.032-19.238 28.856-35.268 48.094-41.682h12.826c12.826 3.206 22.444 16.032 32.062 25.65 105.806 105.806 211.613 211.613 317.42 317.42l141.076 141.076c3.206 3.206 6.412 6.412 9.618 9.618 3.206 6.412 6.412 12.826 6.412 19.238s-3.206 12.826-6.412 19.238c-3.206 3.206-6.412 6.412-9.618 9.618-157.106 157.106-314.214 314.214-471.32 468.114-3.206 3.206-6.412 6.412-6.412 6.412-9.618 6.412-22.444 12.826-32.062 6.412-19.238-16.032-35.268-35.268-51.3-51.3z" />
<glyph unicode="&#xe925;" glyph-name="previous" d="M747.059 848.776c-9.618 6.412-22.444 0-32.062-6.412 0 0-3.206-3.206-6.412-6.412-157.106-153.9-314.214-311.007-471.32-468.114-3.206-3.206-6.412-6.412-9.618-9.618-3.206-6.412-6.412-12.826-6.412-19.238s3.206-12.826 6.412-19.238c3.206-3.206 6.412-6.412 9.618-9.618l141.076-141.076c105.806-105.806 211.613-211.613 317.42-317.42 9.618-9.618 19.238-22.444 32.062-25.65h12.826c19.238 6.412 32.062 22.444 48.094 41.682l6.412 9.618c3.206 3.206 6.412 9.618 6.412 16.032s-3.206 12.826-6.412 19.238c-3.206 3.206-6.412 6.412-9.618 9.618-128.25 128.25-394.37 391.164-397.576 394.37l-19.238 19.238 19.238 19.238c0 0 269.326 272.532 400.782 400.782 6.412 9.618 12.826 19.238 12.826 28.856 0 6.412 0 9.618-3.206 12.826-12.826 16.032-28.856 35.268-51.3 51.3z" />
<glyph unicode="&#xe926;" glyph-name="select" d="M965.084 698.082c-6.412 6.412-16.032 6.412-22.444 0l-570.714-567.508-288.564 288.564c-6.412 6.412-16.032 6.412-22.444 0l-54.506-54.506c-6.412-6.412-6.412-16.032 0-22.444l365.514-365.514 647.664 644.458c6.412 6.412 6.412 16.032 0 22.444l-54.506 54.506z" />
<glyph unicode="&#xe927;" glyph-name="success-notification" d="M965.084 698.082c-6.412 6.412-16.032 6.412-22.444 0l-570.714-567.508-288.564 288.564c-6.412 6.412-16.032 6.412-22.444 0l-54.506-54.506c-6.412-6.412-6.412-16.032 0-22.444l365.514-365.514 647.664 644.458c6.412 6.412 6.412 16.032 0 22.444l-54.506 54.506z" />
<glyph unicode="&#xe928;" glyph-name="drop-down" d="M1026.003 553.8c-3.206-19.238-16.032-32.062-32.062-48.094-144.282-144.282-288.564-288.564-432.845-432.845-19.238-19.238-41.682-28.856-70.538-19.238-9.618 3.206-19.238 9.618-25.65 16.032-147.488 147.488-294.976 294.976-445.67 442.464-9.618 12.826-16.032 25.65-19.238 41.682 0 6.412 0 12.826 0 19.238 0 0 0 3.206 0 3.206 12.826 35.268 35.268 51.3 70.538 51.3s70.538 0 105.806 0c259.707 0 519.414 0 779.121 0 12.826 0 25.65-3.206 38.476-9.618 19.238-9.618 25.65-25.65 32.062-44.888 0-6.412 0-12.826 0-19.238z" />
<glyph unicode="&#xe929;" glyph-name="vendor-form-delete" d="M977.909 675.638c-9.618 16.032-28.856 25.65-48.094 25.65-51.3 0-102.6 0-153.9 0h-60.918v51.3c0 60.918-38.476 99.394-99.394 99.394h-218.026c-60.918 0-99.394-38.476-99.394-99.394v-54.506h-57.712c-51.3 0-102.6 0-153.9 0-9.618 0-22.444-6.412-32.062-16.032s-16.032-22.444-16.032-38.476c0-28.856 22.444-51.3 54.506-54.506 9.618 0 16.032 0 25.65 0h32.062v-173.138c0-153.9 0-304.594 0-458.495 0-76.95 57.712-134.663 134.663-134.663 60.918 0 118.632 0 179.55 0 92.982 0 182.756 0 275.738 0 12.826 0 25.65 3.206 38.476 3.206 57.712 16.032 96.188 67.332 96.188 128.25v631.633h60.918c22.444 0 41.682 12.826 51.3 32.062 3.206 22.444 0 41.682-9.618 57.712zM413.608 698.082v44.888h195.582v-44.888h-195.582zM766.296 592.276v-628.427c0-22.444-6.412-28.856-28.856-28.856h-448.876c-19.238 0-25.65 9.618-25.65 25.65v631.633h503.383zM436.051 56.83c32.062 0 54.506 25.65 54.506 57.712v294.976c0 32.062-22.444 57.712-54.506 57.712-16.032 0-28.856-6.412-38.476-16.032s-16.032-25.65-16.032-41.682c0-99.394 0-198.788 0-298.182 0-32.062 22.444-54.506 54.506-54.506zM589.952 56.83c0 0 0 0 0 0 32.062 0 54.506 25.65 54.506 57.712v294.976c0 35.268-22.444 57.712-54.506 57.712 0 0 0 0 0 0-12.826 0-28.856-6.412-38.476-16.032s-16.032-25.65-16.032-41.682c0-99.394 0-198.788 0-298.182 0-16.032 6.412-32.062 16.032-41.682s22.444-12.826 38.476-12.826z" />
<glyph unicode="&#xe92a;" glyph-name="vendor-form-copy" d="M625.221-74.627c-12.826 6.412-25.65 9.618-35.268 9.618h-368.72c-22.444 0-32.062 6.412-32.062 32.062v445.67c0 6.412 0 9.618 0 16.032-6.412 25.65-28.856 44.888-57.712 41.682s-48.094-25.65-48.094-51.3c0-19.238 0-41.682 0-60.918v-391.164c0-80.156 57.712-134.663 137.87-134.663 54.506 0 112.219 0 166.726 0 67.332 0 137.87 0 205.2 0 25.65 0 48.094 16.032 54.506 38.476 6.412 16.032 0 41.682-22.444 54.506zM958.671 717.32v0c0 60.918-38.476 112.219-96.188 128.25-12.826 6.412-25.65 6.412-38.476 6.412h-169.932c-92.982 0-185.963 0-282.151 0-76.95 0-134.663-57.712-134.663-134.663 0-70.538 0-141.076 0-211.613v-387.957c0-83.362 54.506-137.87 137.87-137.87h445.67c83.362 0 137.87 54.506 137.87 137.87 0 198.788 0 400.782 0 599.571zM849.659 714.114v-596.364c0-22.444-6.412-28.856-28.856-28.856h-445.67c-22.444 0-28.856 6.412-28.856 28.856v596.364c0 25.65 6.412 32.062 32.062 32.062h442.464c22.444-3.206 28.856-9.618 28.856-32.062z" />
<glyph unicode="&#xe92b;" glyph-name="vendor-form-add" d="M513.001 851.982c0 0 0 0 0 0-282.151 0-509.795-227.644-513.001-506.589-3.206-282.151 224.438-516.208 506.589-519.414 3.206 0 3.206 0 6.412 0 137.87 0 262.914 51.3 362.307 147.488s150.694 224.438 153.9 362.307v0c-3.206 282.151-230.85 516.208-516.208 516.208zM513.001-71.42c0 0 0 0 0 0-227.644 0-410.401 185.963-410.401 410.401 0 227.644 185.963 410.401 410.401 410.401 0 0 0 0 0 0 224.438 0 410.401-182.756 410.401-410.401 0-109.012-41.682-214.82-121.838-291.77-76.95-76.95-179.55-118.632-288.564-118.632zM724.615 390.281c-19.238 0-41.682 0-60.918 0h-99.394v157.106c0 6.412 0 9.618 0 16.032-6.412 25.65-28.856 41.682-54.506 38.476s-44.888-25.65-44.888-51.3c0-38.476 0-80.156 0-118.632v-41.682h-157.106c-3.206 0-9.618 0-16.032 0-25.65-6.412-41.682-28.856-38.476-54.506s25.65-44.888 51.3-44.888c38.476 0 80.156 0 118.632 0h41.682v-157.106c0-6.412 0-9.618 0-16.032 6.412-22.444 25.65-38.476 48.094-38.476 3.206 0 3.206 0 6.412 0 25.65 3.206 44.888 25.65 44.888 51.3 0 38.476 0 76.95 0 118.632v44.888h44.888c38.476 0 80.156 0 118.632 0 28.856 0 51.3 22.444 51.3 51.3-3.206 22.444-25.65 44.888-54.506 44.888z" />
<glyph unicode="&#xe92c;" glyph-name="select-question-type" d="M461.701 50.417c-51.3 0-99.394 6.412-147.488 25.65-160.313 64.126-253.294 246.882-205.2 416.814 48.094 173.138 205.2 278.944 384.751 259.707 92.982-9.618 169.932-54.506 230.85-128.25 54.506-67.332 80.156-144.282 76.95-234.057 0-16.032 6.412-32.062 16.032-41.682 16.032-12.826 32.062-12.826 51.3-6.412 19.238 9.618 28.856 22.444 28.856 44.888 3.206 76.95-12.826 144.282-41.682 208.407-67.332 134.663-176.344 218.026-320.626 246.882-12.826 3.206-25.65 3.206-35.268 6.412l-22.444 3.206h-60.918l-16.032-3.206c-12.826 0-22.444-3.206-35.268-6.412-105.806-19.238-195.582-70.538-262.914-153.9-54.506-67.332-89.776-147.488-99.394-237.263l-3.206-19.238v-57.712l3.206-19.238c3.206-12.826 3.206-25.65 6.412-41.682 41.682-208.407 224.438-355.895 439.258-355.895 3.206 0 9.618 0 12.826 0 28.856 0 51.3 22.444 51.3 48.094 0 12.826-6.412 25.65-16.032 35.268-9.618 6.412-22.444 9.618-35.268 9.618zM1026.003 204.318c-6.412 25.65-22.444 44.888-48.094 54.506l-157.106 57.712c-105.806 38.476-208.407 80.156-314.214 118.632-12.826 6.412-28.856 6.412-44.888 3.206-19.238-3.206-35.268-16.032-44.888-35.268s-9.618-41.682-3.206-60.918l51.3-131.456c41.682-109.012 83.362-218.026 125.044-327.038 6.412-19.238 22.444-48.094 57.712-57.712h28.856c38.476 9.618 51.3 41.682 57.712 60.918 12.826 38.476 25.65 76.95 35.268 112.219 6.412 19.238 12.826 38.476 19.238 60.918 22.444 6.412 41.682 12.826 64.126 22.444 35.268 12.826 73.744 22.444 109.012 35.268 22.444 6.412 51.3 19.238 60.918 57.712v22.444l3.206 6.412zM878.515 191.493l-60.918-19.238c-25.65-9.618-51.3-16.032-76.95-25.65-19.238-6.412-28.856-19.238-35.268-35.268-12.826-41.682-28.856-83.362-41.682-125.044l-3.206-9.618-134.663 352.688 352.688-137.87z" />
<glyph unicode="&#xe92d;" glyph-name="form-url" d="M513.001 851.982c0 0 0 0 0 0-3.206 0-3.206 0 0 0-3.206 0-3.206 0-6.412 0-278.944-3.206-506.589-230.85-506.589-513.001s227.644-509.795 506.589-513.001c0 0 0 0 3.206 0 0 0 0 0 0 0s0 0 3.206 0c282.151 0 513.001 230.85 513.001 513.001s-230.85 513.001-513.001 513.001zM936.227 383.868h-201.994c-3.206 134.663-32.062 266.12-76.95 355.895 147.488-54.506 259.707-192.376 278.944-355.895zM509.795-84.245c0 0 0 0 0 0-54.506 3.206-125.044 147.488-134.663 378.338h266.12c-6.412-230.85-80.156-378.338-131.456-378.338zM378.338 383.868c9.618 230.85 80.156 378.338 131.456 378.338 0 0 0 0 3.206 0 51.3 0 125.044-147.488 131.456-378.338h-266.12zM362.307 736.558c-44.888-89.776-70.538-218.026-76.95-352.688h-195.582c19.238 160.313 128.25 294.976 272.532 352.688zM89.776 294.093h195.582c3.206-134.663 28.856-262.914 76.95-352.688-144.282 57.712-253.294 192.376-272.532 352.688zM654.077-58.595c44.888 89.776 73.744 221.232 76.95 355.895h201.994c-16.032-166.726-128.25-304.594-278.944-355.895z" />
<glyph unicode="&#xe92e;" glyph-name="form-textbox" d="M817.596-74.627c-57.712 0-102.6 48.094-102.6 105.806 0 189.17 0 381.545 0 570.714v44.888c0 22.444 6.412 41.682 19.238 60.918 22.444 28.856 51.3 44.888 86.569 44.888 25.65 0 44.888 19.238 48.094 41.682s-9.618 44.888-32.062 54.506c3.206 0-3.206 3.206-3.206 3.206-6.412 3.206-19.238 3.206-32.062 0-3.206 0-6.412 0-6.412 0-6.412 0-12.826-3.206-16.032-3.206-41.682-9.618-80.156-32.062-109.012-64.126h-3.206c-9.618 3.206-16.032 9.618-25.65 16.032-32.062 25.65-67.332 41.682-109.012 48.094 0 0-25.65 3.206-38.476 0-28.856-6.412-41.682-32.062-35.268-54.506 3.206-25.65 25.65-41.682 54.506-41.682 57.712 0 102.6-48.094 102.6-105.806 0-192.376 0-384.751 0-580.333v-35.268c0-22.444-6.412-41.682-19.238-60.918-22.444-28.856-51.3-44.888-86.569-44.888-25.65 0-44.888-16.032-48.094-41.682-3.206-22.444 9.618-44.888 32.062-54.506 12.826-6.412 38.476-3.206 38.476-3.206 3.206 0 9.618 3.206 12.826 3.206 9.618 3.206 19.238 3.206 28.856 6.412 35.268 12.826 67.332 32.062 89.776 60.918 35.268-38.476 80.156-64.126 131.456-70.538 0 0 28.856-3.206 38.476 0 22.444 6.412 41.682 32.062 35.268 54.506 0 28.856-22.444 44.888-51.3 44.888zM506.589 53.624c3.206 0 3.206 0 6.412 0 25.65 0 44.888 22.444 48.094 44.888 3.206 25.65-12.826 48.094-38.476 51.3-6.412 3.206-12.826 3.206-19.238 3.206h-333.451c-41.682 0-70.538 28.856-70.538 70.538 0 73.744 0 150.694 0 224.438 0 3.206 0 9.618 0 12.826 6.412 35.268 32.062 57.712 67.332 57.712 64.126 0 131.456 0 195.582 0h144.282c28.856 0 51.3 22.444 51.3 51.3 0 12.826-6.412 25.65-16.032 35.268s-22.444 12.826-38.476 12.826h-64.126c-92.982 0-185.963 0-278.944 0-73.744 0-141.076-51.3-160.313-125.044 0-6.412-3.206-9.618-3.206-16.032-3.206-70.538-6.412-211.613 0-282.151 6.412-76.95 83.362-144.282 169.932-144.282l339.864 3.206c0 0 0 0 0 0zM1022.797 480.056c-9.618 67.332-60.918 121.838-125.044 137.87-19.238 3.206-41.682 6.412-60.918 6.412h-12.826c-12.826 0-25.65-3.206-35.268-12.826s-16.032-22.444-16.032-35.268c0-28.856 22.444-48.094 51.3-51.3 6.412 0 12.826 0 19.238 0s12.826 0 19.238 0c35.268 0 64.126-28.856 64.126-64.126 0-80.156 0-157.106 0-237.263 0-32.062-22.444-57.712-54.506-64.126-9.618 0-22.444 0-32.062 0-3.206 0-9.618 0-12.826 0-28.856 0-51.3-22.444-51.3-51.3s22.444-51.3 51.3-51.3c6.412 0 9.618 0 16.032 0s12.826 0 19.238 0c73.744 0 141.076 51.3 160.313 125.044 0 6.412 3.206 9.618 3.206 16.032 3.206 64.126 6.412 218.026-3.206 282.151z" />
<glyph unicode="&#xe92f;" glyph-name="form-textarea" d="M1026.003 778.238c0-35.268 0-73.744 0-109.012 0-3.206 0-3.206-3.206-6.412-9.618-35.268-32.062-57.712-70.538-67.332-3.206 0-9.618 0-12.826-3.206 0-169.932 0-339.864 0-513.001 35.268-3.206 64.126-19.238 76.95-51.3 3.206-6.412 6.412-16.032 6.412-22.444 0-35.268 0-73.744 0-109.012 0-3.206 0-6.412-3.206-9.618-6.412-28.856-25.65-48.094-51.3-57.712-6.412-3.206-12.826-3.206-22.444-6.412-35.268 0-73.744 0-109.012 0 0 0-3.206 0-3.206 3.206-38.476 6.412-60.918 35.268-67.332 70.538 0 3.206 0 9.618-3.206 12.826-169.932 0-339.864 0-513.001 0-3.206-35.268-19.238-64.126-51.3-76.95-6.412-3.206-16.032-3.206-22.444-6.412-35.268 0-73.744 0-109.012 0-3.206 0-6.412 0-6.412 3.206-32.062 6.412-51.3 25.65-60.918 57.712 3.206 3.206 0 6.412 0 9.618 0 38.476 0 73.744 0 112.219 0 3.206 3.206 6.412 3.206 6.412 9.618 35.268 28.856 54.506 60.918 64.126 6.412 3.206 12.826 3.206 19.238 3.206 0 169.932 0 339.864 0 509.795-41.682 6.412-70.538 28.856-83.362 73.744 0 0 0 0 0 0 0 38.476 0 73.744 0 112.219 6.412 22.444 12.826 41.682 28.856 51.3 12.826 9.618 28.856 16.032 44.888 22.444 38.476 0 73.744 0 112.219 0 0 0 3.206-3.206 6.412-3.206 32.062-9.618 51.3-28.856 60.918-60.918 3.206-6.412 3.206-12.826 3.206-19.238 169.932 0 339.864 0 513.001 0 0 28.856 12.826 51.3 38.476 67.332 9.618 6.412 22.444 9.618 35.268 16.032 38.476 0 73.744 0 112.219 0 3.206 0 6.412-3.206 9.618-3.206 28.856-9.618 48.094-25.65 57.712-54.506 0-6.412 0-9.618 3.206-16.032zM852.865 82.48c0 169.932 0 339.864 0 513.001-44.888 3.206-80.156 32.062-86.569 86.569-169.932 0-339.864 0-513.001 0 0-22.444-9.618-44.888-25.65-60.918-12.826-16.032-32.062-25.65-54.506-25.65 0-169.932 0-343.070 0-513.001 44.888-3.206 80.156-32.062 86.569-86.569 169.932 0 339.864 0 509.795 0 3.206 57.712 41.682 83.362 83.362 86.569zM169.932 682.050c0 28.856 0 57.712 0 83.362-28.856 0-57.712 0-83.362 0 0-28.856 0-54.506 0-83.362 28.856 0 54.506 0 83.362 0zM856.071 682.050c28.856 0 57.712 0 83.362 0 0 28.856 0 54.506 0 83.362-28.856 0-54.506 0-83.362 0 0-28.856 0-54.506 0-83.362zM169.932-4.089c-28.856 0-57.712 0-83.362 0 0-28.856 0-57.712 0-83.362 28.856 0 54.506 0 83.362 0 0 28.856 0 54.506 0 83.362zM856.071-4.089c0-28.856 0-57.712 0-83.362 28.856 0 57.712 0 83.362 0 0 28.856 0 54.506 0 83.362-28.856 0-54.506 0-83.362 0zM641.252 467.232c-28.856 0-57.712 0-83.362 0 0-86.569 0-169.932 0-256.5 12.826 0 25.65 0 38.476 0 25.65 0 44.888-19.238 44.888-41.682 0-25.65-19.238-41.682-44.888-41.682-54.506 0-109.012 0-166.726 0-25.65 0-44.888 19.238-44.888 41.682 0 25.65 19.238 41.682 44.888 41.682 12.826 0 25.65 0 38.476 0 0 86.569 0 169.932 0 256.5-28.856 0-54.506 0-86.569 0 0-12.826 0-28.856 0-44.888 0-19.238-12.826-32.062-28.856-38.476s-38.476 0-48.094 16.032c-6.412 6.412-9.618 19.238-9.618 25.65 0 28.856 0 54.506 0 83.362 0 25.65 19.238 44.888 44.888 44.888 112.219 0 224.438 0 336.657 0 28.856 0 44.888-19.238 44.888-44.888s0-54.506 0-80.156c0-25.65-19.238-44.888-41.682-44.888-25.65 0-41.682 19.238-41.682 44.888 3.206 12.826 3.206 25.65 3.206 38.476z" />
<glyph unicode="&#xe930;" glyph-name="form-address01" d="M538.652 851.982c28.856-6.412 57.712-9.618 86.569-16.032 83.362-22.444 153.9-70.538 208.407-137.87 41.682-48.094 67.332-105.806 80.156-166.726 19.238-92.982 9.618-182.756-35.268-269.326-35.268-70.538-86.569-128.25-137.87-185.963s-99.394-112.219-150.694-169.932c-16.032-19.238-28.856-38.476-41.682-57.712-22.444-28.856-60.918-32.062-80.156 0-51.3 80.156-118.632 147.488-182.756 218.026-48.094 51.3-96.188 105.806-131.456 169.932-44.888 76.95-64.126 163.52-54.506 253.294 16.032 131.456 80.156 234.057 192.376 304.594 54.506 35.268 115.426 54.506 182.756 57.712 6.412 0 9.618 0 12.826 0 16.032 0 32.062 0 51.3 0zM513.001-39.357c9.618 12.826 22.444 25.65 32.062 41.682 54.506 57.712 105.806 118.632 160.313 176.344 38.476 44.888 73.744 89.776 99.394 144.282 60.918 137.87 6.412 307.801-121.838 387.957-92.982 54.506-189.17 64.126-288.564 25.65-96.188-38.476-157.106-109.012-185.963-205.2-28.856-99.394-9.618-192.376 51.3-278.944 22.444-32.062 48.094-64.126 76.95-96.188 57.712-64.126 115.426-131.456 176.344-195.582zM522.62 313.331c6.412 0 12.826 0 22.444 0 22.444-3.206 38.476-25.65 38.476-48.094s-19.238-41.682-41.682-44.888c-141.076-19.238-262.914 96.188-253.294 237.263 9.618 115.426 102.6 205.2 218.026 208.407 112.219 3.206 211.613-83.362 224.438-195.582 3.206-19.238 0-41.682 0-60.918-3.206-25.65-25.65-44.888-51.3-41.682s-44.888 25.65-41.682 51.3c3.206 28.856 0 54.506-12.826 83.362-32.062 64.126-112.219 89.776-176.344 54.506s-86.569-118.632-48.094-179.55c28.856-44.888 67.332-67.332 121.838-64.126z" />
<glyph unicode="&#xe931;" glyph-name="form-address02" d="M538.652 851.982c28.856-6.412 57.712-9.618 86.569-16.032 83.362-22.444 153.9-70.538 208.407-137.87 41.682-48.094 67.332-105.806 80.156-166.726 19.238-92.982 9.618-182.756-35.268-269.326-35.268-70.538-86.569-128.25-137.87-185.963s-99.394-112.219-150.694-169.932c-16.032-19.238-28.856-38.476-41.682-57.712-22.444-28.856-60.918-32.062-80.156 0-51.3 80.156-118.632 147.488-182.756 218.026-48.094 51.3-96.188 105.806-131.456 169.932-44.888 76.95-64.126 163.52-54.506 253.294 16.032 131.456 80.156 234.057 192.376 304.594 54.506 35.268 115.426 54.506 182.756 57.712 6.412 0 9.618 0 12.826 0 16.032 0 32.062 0 51.3 0zM513.001-39.357c9.618 12.826 22.444 25.65 32.062 41.682 54.506 57.712 105.806 118.632 160.313 176.344 38.476 44.888 73.744 89.776 99.394 144.282 60.918 137.87 6.412 307.801-121.838 387.957-92.982 54.506-189.17 64.126-288.564 25.65-96.188-38.476-157.106-109.012-185.963-205.2-28.856-99.394-9.618-192.376 51.3-278.944 22.444-32.062 48.094-64.126 76.95-96.188 57.712-64.126 115.426-131.456 176.344-195.582zM522.62 313.331c6.412 0 12.826 0 22.444 0 22.444-3.206 38.476-25.65 38.476-48.094s-19.238-41.682-41.682-44.888c-141.076-19.238-262.914 96.188-253.294 237.263 9.618 115.426 102.6 205.2 218.026 208.407 112.219 3.206 211.613-83.362 224.438-195.582 3.206-19.238 0-41.682 0-60.918-3.206-25.65-25.65-44.888-51.3-41.682s-44.888 25.65-41.682 51.3c3.206 28.856 0 54.506-12.826 83.362-32.062 64.126-112.219 89.776-176.344 54.506s-86.569-118.632-48.094-179.55c28.856-44.888 67.332-67.332 121.838-64.126z" />
<glyph unicode="&#xe932;" glyph-name="form-attachment" d="M759.883 842.364c-12.826 3.206-25.65 6.412-38.476 6.412-6.412 0-12.826 0-19.238 3.206h-32.062c-3.206 0-12.826-3.206-19.238-3.206-16.032-3.206-28.856-3.206-44.888-6.412-60.918-12.826-112.219-44.888-160.313-89.776-115.426-115.426-227.644-227.644-343.070-343.070-57.712-57.712-92.982-131.456-99.394-211.613 0-3.206 0-6.412 0-6.412v-44.888l3.206-22.444c16.032-105.806 73.744-189.17 166.726-246.882 80.156-48.094 169.932-60.918 262.914-32.062 28.856 9.618 60.918 19.238 86.569 41.682 12.826 9.618 16.032 25.65 16.032 41.682-3.206 16.032-12.826 28.856-25.65 35.268-16.032 9.618-32.062 9.618-54.506 0-48.094-19.238-102.6-25.65-153.9-16.032-86.569 12.826-147.488 64.126-179.55 144.282-32.062 89.776-16.032 173.138 54.506 243.676 83.362 83.362 169.932 169.932 253.294 253.294l89.776 89.776c6.412 6.412 16.032 12.826 22.444 19.238 51.3 38.476 112.219 54.506 173.138 44.888s115.426-41.682 153.9-89.776c70.538-92.982 64.126-218.026-19.238-301.388-44.888-44.888-96.188-96.188-144.282-144.282-12.826-12.826-32.062-25.65-48.094-32.062-32.062-12.826-67.332-6.412-92.982 19.238-25.65 22.444-32.062 54.506-22.444 86.569 6.412 25.65 22.444 41.682 35.268 54.506l25.65 25.65c22.444 19.238 41.682 41.682 60.918 64.126 12.826 16.032 19.238 32.062 12.826 51.3s-19.238 32.062-38.476 35.268c-19.238 6.412-38.476 0-57.712-19.238-22.444-22.444-41.682-41.682-64.126-64.126l-19.238-19.238c-25.65-25.65-44.888-54.506-57.712-86.569-19.238-51.3-16.032-105.806 3.206-150.694 22.444-48.094 64.126-83.362 112.219-102.6 76.95-25.65 144.282-12.826 208.407 44.888 41.682 38.476 80.156 76.95 118.632 118.632l32.062 35.268c19.238 19.238 32.062 35.268 41.682 51.3 57.712 83.362 76.95 173.138 54.506 266.12-28.856 131.456-115.426 221.232-253.294 256.5z" />
<glyph unicode="&#xe933;" glyph-name="form-checkboxes" d="M1026.003 303.712c0-9.618-3.206-19.238-3.206-25.65-3.206-25.65-28.856-44.888-54.506-41.682s-44.888 22.444-44.888 48.094c0 16.032 3.206 32.062 3.206 48.094 0 198.788-134.663 368.72-330.245 407.195-224.438 48.094-445.67-99.394-487.351-327.038-44.888-224.438 112.219-448.876 339.864-480.939 99.394-16.032 192.376 3.206 278.944 57.712 12.826 6.412 22.444 12.826 35.268 9.618 22.444-3.206 38.476-19.238 41.682-38.476 3.206-22.444-3.206-41.682-22.444-54.506-41.682-25.65-89.776-48.094-137.87-60.918-32.062-6.412-64.126-12.826-92.982-16.032-3.206 0-6.412 0-6.412-3.206-22.444 0-48.094 0-70.538 0-3.206 0-3.206 0-6.412 3.206-44.888 3.206-86.569 12.826-128.25 28.856-182.756 70.538-294.976 201.994-333.451 394.37-3.206 16.032-3.206 35.268-6.412 54.506 0 22.444 0 44.888 0 67.332 0 3.206 0 3.206 3.206 6.412 3.206 19.238 3.206 38.476 9.618 60.918 35.268 198.788 201.994 362.307 400.782 400.782 22.444 3.206 44.888 6.412 67.332 9.618 22.444 0 44.888 0 67.332 0 19.238-3.206 35.268-3.206 54.506-6.412 211.613-35.268 381.545-205.2 416.814-416.814 3.206-19.238 6.412-35.268 6.412-54.506 0-22.444 0-48.094 0-70.538zM436.051 268.443c6.412 6.412 6.412 9.618 9.618 12.826 76.95 76.95 153.9 153.9 227.644 227.644 16.032 16.032 32.062 22.444 51.3 16.032 35.268-9.618 48.094-51.3 25.65-80.156-3.206-3.206-6.412-6.412-6.412-6.412-89.776-89.776-179.55-179.55-266.12-269.326-25.65-25.65-54.506-25.65-80.156 0-38.476 38.476-80.156 80.156-118.632 118.632-28.856 28.856-16.032 73.744 22.444 83.362 19.238 3.206 35.268 0 48.094-16.032 25.65-25.65 54.506-51.3 80.156-80.156 0 3.206 3.206 0 6.412-6.412z" />
<glyph unicode="&#xe934;" glyph-name="paint-brush" d="M905.961 603.69c-93.366-179.55-158.004-277.021-191.862-311.905-17.442-16.416-43.092-42.066-81.054-51.3-13.338-4.104-9.234 25.65-51.3 64.638-34.884 33.858-68.742 25.65-68.742 47.196 0 8.208 8.208 51.3 43.092 93.366 33.858 38.988 119.016 124.146 260.604 252.396 8.208 8.208 72.846 76.95 110.808 43.092 38.988-34.884-16.416-124.146-21.546-137.484zM526.34-2.678c-47.196-47.196-107.73-68.742-184.68-68.742-42.066 0-81.054 8.208-114.912 25.65s-59.508 38.988-81.054 68.742-34.884 59.508-47.196 93.366c-8.208 34.884-13.338 72.846-13.338 115.938 0 0 47.196-47.196 90.288-55.404 153.9-21.546 183.654 191.862 345.763 119.016 34.884-16.416 82.080-63.612 76.95-162.108-4.104-55.404-51.3-114.912-71.82-136.458z" />
<glyph unicode="&#xe935;" glyph-name="form-city" d="M734.233-68.214h-25.65c-32.062 0-60.918 0-92.982 0-12.826 0-19.238 6.412-22.444 19.238 0 6.412 0 12.826 0 19.238v205.2c0 192.376 0 384.751 0 573.92 0 54.506-22.444 89.776-67.332 105.806l-253.294-3.206c-25.65-12.826-60.918-32.062-64.126-73.744-3.206-38.476-3.206-80.156 0-118.632 0-25.65 19.238-44.888 48.094-44.888 25.65 0 44.888 12.826 51.3 38.476 3.206 9.618 3.206 19.238 3.206 28.856 0 19.238 0 38.476 0 57.712v6.412h179.55v-779.121c0-9.618 0-19.238 0-28.856 6.412-57.712 54.506-109.012 109.012-112.219 22.444 0 44.888 0 70.538 0s51.3 0 73.744 0c16.032 0 32.062 9.618 41.682 22.444s9.618 32.062 3.206 48.094c-6.412 16.032-19.238 35.268-54.506 35.268zM1022.797 566.626c0 51.3-19.238 86.569-57.712 105.806-41.682 22.444-83.362 16.032-125.044-12.826l-16.032-12.826c-32.062-25.65-67.332-48.094-99.394-73.744-28.856-19.238-38.476-41.682-38.476-76.95 0-109.012 0-214.82 0-323.832v-134.663c0-6.412 0-16.032 0-22.444 3.206-25.65 25.65-41.682 51.3-44.888 25.65 0 48.094 19.238 51.3 44.888 0 6.412 0 16.032 0 25.65v118.632c0 105.806 0 211.613 0 320.626 0 6.412 3.206 9.618 0 9.618 38.476 28.856 80.156 60.918 121.838 86.569 0 0 3.206 3.206 3.206 0 0 0 3.206-3.206 3.206-6.412s0-6.412 0-12.826v-673.315c0-6.412 0-12.826 0-19.238 3.206-25.65 19.238-41.682 44.888-44.888 3.206 0 6.412 0 6.412 0 22.444 0 38.476 12.826 48.094 32.062 3.206 12.826 3.206 22.444 3.206 35.268 0 89.776 0 179.55 0 269.326v166.726c3.206 83.362 3.206 163.52 3.206 243.676zM298.182 595.482c-54.506 0-105.806 0-157.106 0h-38.476c-67.332 0-99.394-32.062-99.394-99.394v-442.464c0-54.506 28.856-67.332 51.3-67.332 16.032 0 25.65 3.206 35.268 12.826 12.826 12.826 16.032 28.856 16.032 54.506v436.051h182.756v-596.364c0-6.412 0-12.826 0-19.238 3.206-28.856 25.65-44.888 51.3-44.888 0 0 3.206 0 3.206 0 28.856 3.206 48.094 25.65 48.094 60.918 0 205.2 0 410.401 0 615.602 0 54.506-35.268 89.776-92.982 89.776z" />
<glyph unicode="&#xe936;" glyph-name="form-country" d="M865.69 249.206c-6.412-25.65-12.826-48.094-25.65-73.744-32.062-73.744-83.362-131.456-153.9-173.138-16.032-9.618-32.062-16.032-48.094-25.65l-6.412-3.206c-3.206-3.206-6.412-3.206-12.826-3.206 0 9.618 0 19.238 0 32.062 0 0 3.206 3.206 6.412 9.618 12.826 12.826 22.444 22.444 35.268 35.268 6.412 6.412 16.032 16.032 22.444 22.444 25.65 25.65 41.682 48.094 54.506 76.95 12.826 22.444 19.238 48.094 19.238 76.95 0 38.476-19.238 67.332-57.712 76.95-6.412 3.206-16.032 3.206-22.444 6.412-3.206-3.206-9.618 0-19.238 0-19.238 6.412-32.062 16.032-44.888 35.268l-3.206 3.206c-3.206 6.412-6.412 9.618-9.618 16.032-25.65 41.682-67.332 54.506-115.426 28.856-6.412-3.206-16.032-9.618-22.444-12.826-6.412-6.412-16.032-9.618-22.444-12.826-38.476-16.032-70.538-12.826-96.188 9.618-12.826 9.618-16.032 19.238-16.032 32.062 0 3.206 0 9.618 3.206 12.826 0 3.206 3.206 3.206 3.206 3.206s3.206 0 6.412 0c6.412-3.206 12.826-6.412 16.032-6.412 6.412-3.206 9.618-3.206 16.032-6.412 48.094-22.444 83.362-3.206 99.394 16.032 25.65 25.65 35.268 32.062 67.332 32.062h22.444l-32.062 83.362h-12.826c-38.476-3.206-70.538-22.444-102.6-51.3-3.206-3.206-6.412-6.412-16.032 0-12.826 6.412-22.444 12.826-35.268 16.032-44.888 16.032-86.569 0-109.012-41.682-9.618-16.032-12.826-32.062-12.826-48.094-12.826 3.206-25.65 6.412-35.268 9.618l3.206 6.412c3.206 16.032 9.618 28.856 16.032 41.682s12.826 25.65 19.238 38.476c6.412 9.618 12.826 19.238 19.238 32.062 9.618 19.238 12.826 38.476 9.618 57.712-3.206 22.444-12.826 38.476-32.062 51.3 83.362 67.332 198.788 92.982 304.594 70.538l9.618-3.206 57.712 80.156-22.444 6.412c-28.856 6.412-64.126 9.618-76.95 12.826h-64.126l-16.032-3.206c-12.826 0-25.65-3.206-38.476-6.412-115.426-22.444-214.82-76.95-288.564-169.932-60.918-73.744-96.188-157.106-105.806-256.5v-76.95l3.206-16.032c0-12.826 3.206-25.65 6.412-35.268 22.444-118.632 80.156-218.026 176.344-294.976 73.744-57.712 157.106-92.982 250.088-102.6 16.032 0 32.062-3.206 51.3-3.206 115.426 0 218.026 38.476 307.801 115.426 83.362 70.538 137.87 160.313 160.313 266.12 0 3.206 3.206 9.618 3.206 16.032 3.206 12.826 6.412 28.856 6.412 35.268l6.412 35.268-99.394-73.744h-6.412zM125.044 403.106c6.412-32.062 32.062-54.506 70.538-64.126 51.3-12.826 96.188-38.476 147.488-67.332l6.412-3.206c6.412-3.206 6.412-6.412 6.412-12.826s0-9.618 0-16.032c0-3.206 0-6.412 0-6.412-3.206-28.856 9.618-54.506 38.476-73.744 16.032-9.618 32.062-19.238 48.094-28.856 6.412-3.206 9.618-6.412 9.618-16.032 0-60.918 3.206-109.012 12.826-153.9 0-6.412 3.206-12.826 3.206-16.032-28.856 0-57.712 6.412-83.362 12.826-160.313 44.888-256.5 147.488-291.77 301.388-22.444 96.188-6.412 192.376 48.094 285.357 9.618 12.826 19.238 25.65 28.856 38.476 6.412 0 9.618 0 16.032 0-3.206-9.618-9.618-19.238-16.032-32.062-3.206-9.618-9.618-19.238-12.826-28.856-9.618-16.032-19.238-35.268-28.856-54.506-6.412-19.238-9.618-41.682-3.206-64.126zM455.289 220.349l-19.238 12.826c0 12.826 0 25.65 0 41.682v3.206c22.444 3.206 44.888 12.826 67.332 28.856l3.206 3.206c3.206 3.206 6.412 6.412 9.618 6.412 3.206 3.206 6.412 3.206 6.412 6.412 0 0 3.206-3.206 6.412-6.412 16.032-25.65 38.476-57.712 73.744-73.744 16.032-6.412 32.062-12.826 48.094-16.032l12.826-3.206c3.206 0 6.412 0 6.412-3.206s0-3.206 0-6.412c-3.206-22.444-16.032-44.888-35.268-67.332-16.032-19.238-35.268-38.476-57.712-57.712-22.444-22.444-38.476-44.888-41.682-70.538-6.412 35.268-6.412 70.538-6.412 102.6 0 38.476-16.032 70.538-51.3 89.776-6.412 0-12.826 3.206-22.444 9.618zM1019.591 627.544c-6.412 35.268-22.444 64.126-44.888 92.982-32.062 38.476-70.538 64.126-115.426 73.744-9.618 3.206-22.444 3.206-32.062 6.412l-12.826 3.206h-32.062c-35.268-3.206-70.538-12.826-99.394-32.062-60.918-38.476-96.188-96.188-105.806-166.726-6.412-48.094 3.206-92.982 28.856-137.87 19.238-35.268 44.888-64.126 67.332-89.776l12.826-12.826c28.856-28.856 57.712-60.918 80.156-96.188 6.412-12.826 19.238-19.238 32.062-19.238 0 0 0 0 0 0 12.826 0 25.65 6.412 32.062 19.238 3.206 3.206 6.412 6.412 6.412 9.618 3.206 6.412 9.618 12.826 12.826 16.032 25.65 28.856 51.3 57.712 76.95 86.569 28.856 32.062 54.506 60.918 73.744 99.394 25.65 44.888 32.062 96.188 19.238 147.488zM936.227 521.738c-9.618-22.444-25.65-44.888-48.094-70.538-16.032-19.238-32.062-35.268-48.094-54.506l-32.062-35.268c-3.206-3.206-3.206-3.206-6.412-6.412l-16.032 16.032c-22.444 22.444-44.888 48.094-64.126 70.538-16.032 16.032-25.65 32.062-38.476 48.094-28.856 41.682-35.268 83.362-22.444 128.25s41.682 76.95 83.362 92.982c19.238 9.618 38.476 12.826 54.506 12.826 25.65 0 51.3-6.412 76.95-22.444 64.126-35.268 86.569-115.426 60.918-179.55z" />
<glyph unicode="&#xe937;" glyph-name="form-dropdown" d="M513.001 851.982c282.151 0 513.001-230.85 513.001-513.001s-230.85-513.001-513.001-513.001c-282.151 0-513.001 230.85-513.001 513.001s230.85 513.001 513.001 513.001zM923.403 338.981c0 227.644-185.963 410.401-410.401 410.401-227.644 0-413.608-185.963-410.401-410.401 0-227.644 185.963-410.401 410.401-410.401 227.644 0 410.401 185.963 410.401 410.401zM487.351 162.637l-189.17 227.644c-16.032 19.238-3.206 51.3 25.65 51.3h378.338c25.65 0 41.682-32.062 25.65-51.3l-189.17-227.644c-12.826-16.032-38.476-16.032-51.3 0z" />
<glyph unicode="&#xe938;" glyph-name="form-email" d="M679.727 153.018c-109.012-96.188-266.12-76.95-349.482 16.032-83.362 89.776-86.569 227.644-12.826 323.832 76.95 96.188 224.438 128.25 343.070 44.888 0 3.206 0 6.412 3.206 9.618 6.412 25.65 28.856 41.682 54.506 38.476s44.888-22.444 44.888-48.094c0-57.712 0-115.426 0-176.344 0-44.888 0-89.776 0-134.663 0-28.856 19.238-57.712 48.094-67.332s60.918-3.206 80.156 22.444c6.412 6.412 9.618 16.032 12.826 25.65 48.094 166.726 12.826 314.214-112.219 432.845-115.426 109.012-256.5 137.87-407.195 86.569s-243.676-157.106-275.738-314.214c-44.888-224.438 109.012-445.67 336.657-480.939 99.394-16.032 189.17 3.206 275.738 51.3 28.856 16.032 57.712 9.618 70.538-16.032s6.412-54.506-19.238-67.332c-44.888-28.856-96.188-48.094-147.488-60.918-278.944-60.918-551.477 112.219-612.395 391.164-64.126 278.944 121.838 561.095 403.989 612.395 278.944 54.506 545.064-128.25 599.571-407.195 16.032-89.776 12.826-176.344-19.238-259.707-25.65-70.538-73.744-109.012-147.488-115.426-70.538-6.412-128.25 25.65-163.52 86.569-3.206 0-3.206 3.206-6.412 6.412zM365.514 335.775c0-80.156 67.332-147.488 147.488-147.488s147.488 67.332 147.488 147.488c0 83.362-67.332 147.488-147.488 150.694-80.156 0-147.488-67.332-147.488-150.694z" />
<glyph unicode="&#xe939;" glyph-name="form-multi-select" d="M814.39 185.080c0 115.426 0 227.644 0 343.070 0 76.95-51.3 128.25-131.456 128.25-115.426 0-227.644 0-343.070 0-6.412 0-176.344 0-211.613 0-76.95 0-128.25-51.3-128.25-128.25 0-185.963 0-371.926 0-554.683 0-76.95 51.3-128.25 128.25-128.25 185.963 0 371.926 0 554.683 0 76.95 0 128.25 51.3 128.25 128.25 3.206 35.268 3.206 205.2 3.206 211.613zM734.233-29.739c0-32.062-16.032-48.094-48.094-48.094-185.963 0-371.926 0-557.889 0-32.062 0-48.094 16.032-48.094 48.094 0 92.982 0 185.963 0 278.944s0 185.963 0 278.944c0 32.062 16.032 48.094 48.094 48.094 185.963 0 371.926 0 557.889 0 32.062 0 48.094-16.032 48.094-48.094 0-185.963 0-371.926 0-557.889zM900.959 835.951c-192.376 0-384.751 0-577.127 0-38.476 0-76.95-16.032-96.188-51.3-12.826-25.65-16.032-48.094-16.032-73.744 0-9.618 6.412-16.032 16.032-16.032h48.094c9.618 0 16.032 6.412 16.032 16.032 0 19.238 9.618 44.888 38.476 44.888 3.206 0 6.412 0 9.618 0 185.963 0 368.72 0 554.683 0 25.65 0 48.094-22.444 48.094-48.094 0-185.963 0-368.72 0-554.683 0-41.682-19.238-54.506-70.538-54.506-9.618 0-16.032-6.412-16.032-16.032v-41.682c0-9.618 6.412-16.032 16.032-16.032s19.238 0 28.856 0c70.538 0 125.044 57.712 125.044 125.044 0 189.17 0 375.132 0 564.302 0 64.126-54.506 121.838-125.044 121.838zM532.239 371.044c-16.032 3.206-25.65-3.206-35.268-12.826-41.682-44.888-86.569-86.569-131.456-131.456-16.032 16.032-32.062 35.268-48.094 51.3-19.238 19.238-41.682 19.238-60.918 3.206-16.032-16.032-16.032-41.682 3.206-60.918 22.444-25.65 48.094-48.094 70.538-70.538 25.65-25.65 44.888-25.65 70.538 0 32.062 32.062 64.126 64.126 92.982 92.982 19.238 19.238 41.682 41.682 60.918 60.918 12.826 12.826 16.032 25.65 9.618 44.888-3.206 12.826-16.032 19.238-32.062 22.444z" />
<glyph unicode="&#xe93a;" glyph-name="form-paypal-email" d="M1026.003 451.2c0 3.206-3.206 9.618-3.206 12.826-3.206 9.618-3.206 19.238-6.412 28.856-22.444 76.95-73.744 128.25-153.9 153.9-12.826 3.206-25.65 6.412-38.476 9.618-6.412 0-6.412 0-6.412 6.412-9.618 51.3-38.476 96.188-76.95 131.456-38.476 32.062-83.362 48.094-134.663 54.506 0 0-3.206 0-3.206 0l-423.226 3.206-144.282-660.489c-12.826-51.3-22.444-105.806-35.268-157.106 0 0 0 0 0-3.206v-16.032h237.263l-38.476-173.138c0-3.206 0-3.206 0-6.412v-9.618h320.626l6.412 32.062c3.206 19.238 9.618 38.476 12.826 57.712l12.826 54.506c9.618 35.268 16.032 67.332 25.65 102.6 0 3.206 0 3.206 6.412 3.206 9.618 0 19.238 0 28.856 0 28.856 0 60.918 0 92.982 3.206 150.694 9.618 266.12 105.806 307.801 250.088 3.206 16.032 6.412 32.062 9.618 44.888 0 6.412 3.206 12.826 3.206 22.444 0 3.206 0 3.206 0 6.412v48.094zM349.482 755.794c73.744 0 147.488 0 221.232 0 51.3 0 89.776-16.032 121.838-48.094 12.826-12.826 22.444-28.856 25.65-48.094h-336.657l-38.476-166.726c-28.856-128.25-57.712-256.5-86.569-384.751 0 0 0-3.206 0-3.206-25.65 0-54.506 0-80.156 0-9.618 0-16.032 0-25.65 0h-35.268l141.076 650.871h92.982zM721.409 560.212c-3.206-9.618-3.206-19.238-6.412-28.856-25.65-92.982-92.982-150.694-189.17-160.313-22.444-3.206-44.888-3.206-60.918-3.206-12.826 0-28.856 0-41.682 0h-9.618l44.888 201.994h266.12c0-6.412 0-9.618-3.206-9.618zM314.214-77.833l80.156 349.482c3.206 0 3.206 0 6.412 0 12.826 0 28.856 0 41.682 0 28.856 0 60.918 0 89.776 3.206 150.694 16.032 250.088 105.806 285.357 253.294 3.206 9.618 3.206 19.238 6.412 28.856v6.412c6.412 0 9.618-3.206 16.032-3.206 67.332-22.444 99.394-67.332 96.188-137.87s-28.856-131.456-76.95-176.344c-44.888-44.888-105.806-67.332-176.344-70.538-35.268 0-70.538 0-105.806 0-16.032 0-32.062 0-48.094 0h-19.238l-67.332-253.294h-128.25z" />
<glyph unicode="&#xe93b;" glyph-name="form-phone" d="M1019.591 415.931c-19.238 128.25-80.156 234.057-185.963 320.626-70.538 57.712-150.694 92.982-240.47 109.012-12.826 3.206-25.65 3.206-38.476 6.412h-76.95l-19.238-3.206c-12.826-3.206-25.65-3.206-38.476-6.412-163.52-28.856-282.151-112.219-355.895-246.882-35.268-64.126-57.712-134.663-64.126-211.613v-64.126l3.206-22.444c3.206-12.826 3.206-28.856 6.412-41.682 28.856-150.694 109.012-269.326 237.263-349.482 83.362-51.3 173.138-80.156 269.326-80.156 38.476 0 76.95 3.206 118.632 12.826 99.394 22.444 182.756 67.332 250.088 134.663 112.219 125.044 160.313 272.532 134.663 442.464zM939.434 338.981c0-112.219-44.888-221.232-125.044-301.388s-185.963-125.044-301.388-125.044c0 0 0 0 0 0-112.219 0-221.232 44.888-301.388 125.044s-125.044 189.17-125.044 301.388c0 234.057 192.376 426.432 426.432 426.432 0 0 0 0 0 0 237.263 0 426.432-192.376 426.432-426.432zM718.202 310.124c-35.268 35.268-86.569 35.268-121.838 0-9.618-9.618-19.238-19.238-28.856-28.856l-9.618-9.618c-41.682 28.856-76.95 67.332-112.219 109.012l9.618 9.618c9.618 9.618 19.238 19.238 28.856 28.856 35.268 35.268 35.268 86.569 0 121.838-28.856 28.856-57.712 60.918-89.776 89.776-35.268 35.268-86.569 35.268-121.838 0-3.206-9.618-12.826-16.032-22.444-25.65-35.268-38.476-57.712-83.362-57.712-134.663v0c0-25.65 12.826-67.332 12.826-70.538 22.444-67.332 60.918-128.25 112.219-189.17 83.362-92.982 173.138-153.9 275.738-182.756 19.238-6.412 35.268-6.412 54.506-6.412 25.65 0 54.506 6.412 80.156 16.032 35.268 16.032 57.712 38.476 80.156 64.126 35.268 35.268 35.268 86.569 0 121.838-28.856 28.856-60.918 57.712-89.776 86.569zM391.164 457.612l-19.238-19.238c-32.062-32.062-32.062-70.538-6.412-105.806 41.682-54.506 89.776-102.6 147.488-144.282 35.268-25.65 73.744-22.444 102.6 9.618l41.682 41.682c25.65-25.65 51.3-51.3 76.95-76.95l-3.206-3.206c-12.826-12.826-25.65-25.65-41.682-35.268-16.032-6.412-28.856-9.618-48.094-9.618v0c-16.032 0-35.268 6.412-51.3 12.826-83.362 32.062-153.9 83.362-218.026 163.52-35.268 44.888-60.918 86.569-76.95 137.87-16.032 41.682-9.618 76.95 22.444 109.012 6.412 6.412 16.032 16.032 22.444 22.444 25.65-25.65 51.3-51.3 76.95-76.95-9.618-9.618-16.032-19.238-25.65-25.65z" />
<glyph unicode="&#xe93c;" glyph-name="form-postcode" d="M788.74 746.176c-182.756 0-368.72 0-551.477 0-128.25 0-234.057-105.806-234.057-234.057 0-115.426 0-230.85 0-346.276 0-105.806 73.744-198.788 176.344-227.644 6.412-3.206 16.032-3.206 22.444-6.412l9.618-3.206h612.395c3.206 0 9.618 3.206 12.826 3.206 9.618 3.206 19.238 3.206 28.856 9.618 89.776 32.062 144.282 92.982 160.313 185.963 0 3.206 3.206 6.412 3.206 9.618v400.782c0 3.206-3.206 6.412-3.206 9.618-22.444 115.426-118.632 198.788-237.263 198.788zM926.609 175.462c0-86.569-57.712-144.282-144.282-144.282-35.268 0-70.538 0-102.6 0-28.856 0-54.506 0-83.362 0h-163.52c-60.918 0-125.044 0-185.963 0-86.569 0-144.282 57.712-144.282 144.282 0 109.012 0 218.026 0 327.038 0 83.362 57.712 144.282 144.282 144.282 179.55 0 359.101 0 538.652 0 86.569 0 144.282-57.712 144.282-144.282-3.206-109.012-3.206-218.026-3.206-327.038zM670.108 409.518c-16.032-9.618-28.856-22.444-44.888-35.268-9.618-9.618-22.444-16.032-32.062-25.65-54.506-41.682-118.632-41.682-173.138 0-9.618 9.618-22.444 16.032-32.062 25.65-16.032 12.826-32.062 25.65-48.094 35.268-9.618 6.412-19.238 9.618-32.062 9.618-16.032 0-28.856-6.412-38.476-19.238-16.032-22.444-12.826-51.3 9.618-70.538 28.856-22.444 57.712-44.888 83.362-64.126 41.682-28.856 86.569-44.888 141.076-48.094 51.3 0 96.188 16.032 134.663 41.682 28.856 22.444 60.918 44.888 89.776 67.332 12.826 9.618 19.238 22.444 22.444 35.268s-3.206 25.65-9.618 38.476c-16.032 25.65-44.888 28.856-70.538 9.618z" />
</font>
</defs>
</svg>
